<?xml version="1.0" encoding="UTF-8" standalone="no"?>
<!-- Created with Inkscape (http://www.inkscape.org/) -->

<svg
   xmlns:dc="http://purl.org/dc/elements/1.1/"
   xmlns:cc="http://creativecommons.org/ns#"
   xmlns:rdf="http://www.w3.org/1999/02/22-rdf-syntax-ns#"
   xmlns:svg="http://www.w3.org/2000/svg"
   xmlns="http://www.w3.org/2000/svg"
   xmlns:sodipodi="http://sodipodi.sourceforge.net/DTD/sodipodi-0.dtd"
   xmlns:inkscape="http://www.inkscape.org/namespaces/inkscape"
   width="390.28491"
   height="81.969398"
   id="svg2"
   version="1.1"
   inkscape:version="0.48.4 r9939"
   sodipodi:docname="GPBerlin-logo-path_with_bear.svg">
  <defs
     id="defs4" />
  <sodipodi:namedview
     id="base"
     pagecolor="#ffffff"
     bordercolor="#666666"
     borderopacity="1.0"
     inkscape:pageopacity="0.0"
     inkscape:pageshadow="2"
     inkscape:zoom="1.979899"
     inkscape:cx="132.14343"
     inkscape:cy="53.489086"
     inkscape:document-units="px"
     inkscape:current-layer="text2989"
     showgrid="false"
     showguides="true"
     inkscape:guide-bbox="true"
     fit-margin-left="0"
     fit-margin-top="0"
     fit-margin-right="0"
     fit-margin-bottom="0"
     inkscape:window-width="1918"
     inkscape:window-height="1028"
     inkscape:window-x="0"
     inkscape:window-y="0"
     inkscape:window-maximized="1" />
  <metadata
     id="metadata7">
    <rdf:RDF>
      <cc:Work
         rdf:about="">
        <dc:format>image/svg+xml</dc:format>
        <dc:type
           rdf:resource="http://purl.org/dc/dcmitype/StillImage" />
        <dc:title></dc:title>
      </cc:Work>
    </rdf:RDF>
  </metadata>
  <g
     inkscape:label="Layer 1"
     inkscape:groupmode="layer"
     id="layer1"
     transform="translate(-123.81786,-81.289952)">
    <g
       style="font-size:144px;font-style:normal;font-weight:normal;line-height:125%;letter-spacing:0px;word-spacing:0px;fill:#ffffff;fill-opacity:1;stroke:none;font-family:Sans"
       id="text2985">
      <path
         d="m 216.63393,135.95146 0.0625,-0.0625 0.0937,-0.0625 0.0312,-0.0312 0.0312,-0.0312 0.0625,-0.0625 0,-0.0312 0.0625,-0.0625 0.0625,-0.0312 0,-0.0625 0.0625,-0.0312 0,-0.0625 0.0625,-0.0625 0,-0.0312 0.0625,-0.0937 0.0312,-0.0312 0.0312,-0.0312 0.0937,-0.125 0.0312,-0.0937 0.0625,-0.0937 0,-0.0625 0,-0.0937 0.0312,-0.0937 0.0312,-0.15625 0.0312,-0.15625 0.0937,-0.34375 0.0625,-0.34375 0.0937,-0.34375 0.0625,-0.34375 0.0937,-0.6875 0.0625,-0.71875 0.0625,-0.71875 0,-0.75 0.0312,-0.75 0.0312,-0.78125 0,-0.78125 0.0312,-0.78125 0.0312,-0.8125 0.0625,-0.84375 0.0937,-0.8125 0.0937,-0.84375 0.15625,-0.8125 0.1875,-0.875 0.1875,-0.78125 0.1875,-0.9375 0.25,-1.03125 0.21875,-1.125 0.25,-1.09375 0.28125,-1 0.125,-0.46875 0.125,-0.4375 0.15625,-0.40625 0.125,-0.34375 0.1875,-0.375 0.21875,-0.375 0.25,-0.375 0.25,-0.40625 0.21875,-0.40625 0.25,-0.40625 0.0625,-0.21875 0.0937,-0.1875 0.0625,-0.21875 0.0625,-0.21875 0.0625,-0.34375 0.0625,-0.34375 0.0312,-0.40625 0.0312,-0.34375 0,-0.34375 -0.0312,-0.375 -0.0625,-0.375 -0.0625,-0.34375 -0.0625,-0.375 -0.0625,-0.34375 -0.0937,-0.34375 -0.0937,-0.34375 -0.21875,-0.65625 -0.25,-0.65625 -0.25,-0.59375 -0.28125,-0.53125 -0.28125,-0.5 -0.28125,-0.40625 -0.25,-0.375 -0.21875,-0.25 -0.125,-0.125 -0.0625,-0.0625 -0.0937,-0.0625 -0.0937,-0.0312 -0.0625,-0.0937 -0.125,-0.0625 -0.1875,-0.0625 -0.1875,-0.0312 -0.21875,-0.0312 -0.25,-0.0312 -0.28125,0 -0.3125,0 -0.65625,0.0312 -0.78125,0.0625 -0.875,0.125 -0.90625,0.125 -0.9375,0.15625 -0.96875,0.1875 -1,0.21875 -1,0.21875 -1,0.25 -0.96875,0.21875 -0.9375,0.25 -0.90625,0.21875 -0.5,0.125 -0.46875,0.125 -0.375,0.0312 -0.375,0.0312 -0.71875,0 -0.75,-0.0312 -0.375,-0.0312 -0.46875,0 -0.46875,0.0312 -0.5625,0.0312 -0.625,0.0625 -0.71875,0.125 -0.8125,0.15625 -0.9375,0.21875 -0.90625,0.1875 -0.875,0.28125 -0.375,0.125 -0.375,0.125 -0.375,0.15625 -0.34375,0.21875 -0.3125,0.1875 -0.28125,0.25 -0.125,0.125 -0.125,0.125 -0.125,0.15625 -0.125,0.15625 -0.125,0.15625 -0.0937,0.15625 -0.0937,0.1875 -0.0937,0.21875 -0.0625,0.1875 -0.0625,0.21875 -0.0625,0.21875 -0.0625,0.25 -0.0625,0.3125 0,0.34375 0,0.40625 0,0.40625 0.0625,0.5 0.0625,0.4375 0.0625,0.5 0.0937,0.46875 0.0937,0.46875 0.125,0.4375 0.0937,0.40625 0.125,0.34375 0.125,0.3125 0.125,0.25 0.0625,0.0937 0.0625,0.0625 0.0625,0.0312 0.0625,0.0625 0.4375,0.0937 0.40625,0.0625 0.40625,0.0312 0.375,0 0.34375,-0.0625 0.375,-0.0625 0.375,-0.125 0.34375,-0.125 0.78125,-0.25 0.84375,-0.34375 0.4375,-0.125 0.5,-0.15625 0.53125,-0.125 0.5625,-0.125 0.6875,-0.0937 0.65625,-0.0625 0.625,-0.0312 0.5625,-0.0312 0.5625,-0.0312 0.625,-0.0625 0.625,-0.0937 0.65625,-0.125 0.40625,-0.125 0.4375,-0.15625 0.5,-0.15625 0.53125,-0.1875 0.28125,-0.0625 0.28125,-0.0625 0.28125,-0.0312 0.28125,-0.0312 0.28125,0 0.28125,0 0.28125,0.0312 0.28125,0.0937 0.125,0.0312 0.125,0.0937 0.125,0.0937 0.0937,0.0937 0.125,0.125 0.0625,0.125 0.0625,0.125 0.0625,0.125 0.0625,0.1875 0.0312,0.125 0.0312,0.1875 0,0.15625 -0.0312,0.15625 -0.0312,0.1875 -0.0312,0.15625 -0.0312,0.1875 -0.15625,0.28125 -0.15625,0.3125 -0.1875,0.28125 -0.1875,0.3125 -0.21875,0.28125 -0.25,0.25 -0.21875,0.25 -0.25,0.1875 -0.40625,0.25 -0.46875,0.3125 -0.5,0.34375 -0.5,0.34375 -0.53125,0.3125 -0.53125,0.28125 -0.25,0.125 -0.25,0.0937 -0.21875,0.0937 -0.21875,0.0625 -0.34375,0.0625 -0.3125,0.0312 -0.34375,0 -0.34375,-0.0312 -0.34375,0 -0.3125,0 -0.3125,0.0312 -0.3125,0.0625 -0.1875,0.0625 -0.25,0.0937 -0.28125,0.125 -0.28125,0.125 -0.28125,0.125 -0.3125,0.125 -0.25,0.0937 -0.21875,0.0625 -0.46875,0.0625 -0.5,0.0312 -0.5,0.0625 -0.53125,0.0312 -1.09375,0.0312 -1.09375,-0.0312 -1.0625,0 -1,-0.0937 -0.5,-0.0312 -0.46875,-0.0937 -0.40625,-0.0312 -0.375,-0.0937 -0.3125,-0.0625 -0.34375,-0.125 -0.34375,-0.125 -0.34375,-0.125 -0.34375,-0.125 -0.34375,-0.125 -0.3125,-0.125 -0.28125,-0.0937 -0.46875,-0.0937 -0.5,-0.15625 -0.53125,-0.15625 -0.5,-0.15625 -0.5,-0.1875 -0.53125,-0.21875 -0.46875,-0.21875 -0.5,-0.25 -0.46875,-0.25 -0.40625,-0.3125 -0.21875,-0.125 -0.1875,-0.1875 -0.15625,-0.15625 -0.1875,-0.15625 -0.15625,-0.1875 -0.15625,-0.1875 -0.125,-0.1875 -0.125,-0.1875 -0.125,-0.21875 -0.0937,-0.1875 -0.0937,-0.21875 -0.0625,-0.21875 -0.0937,-0.46875 -0.0312,-0.4375 0,-0.5 0.0937,-0.53125 0.0937,-0.53125 0.1875,-0.53125 0.1875,-0.5625 0.21875,-0.59375 0.28125,-0.59375 0.28125,-0.59375 0.34375,-0.59375 0.34375,-0.59375 0.375,-0.59375 0.40625,-0.625 0.4375,-0.59375 0.40625,-0.59375 0.875,-1.15625 0.90625,-1.125 0.875,-1.0625 0.875,-1 0.78125,-0.875 0.71875,-0.781248 0.625,-0.65625 0.46875,-0.5 0.90625,-0.90625 0.90625,-0.875 0.90625,-0.875 0.90625,-0.84375 0.9375,-0.8125 1,-0.8125 0.5,-0.375 0.53125,-0.375 0.5,-0.375 0.53125,-0.34375 0.4375,-0.3125 0.4375,-0.375 0.40625,-0.375 0.46875,-0.4375 0.21875,-0.1875 0.25,-0.1875 0.21875,-0.1875 0.21875,-0.15625 0.25,-0.15625 0.25,-0.125 0.25,-0.125 0.25,-0.09375 0.28125,-0.03125 0.21875,-0.03125 0.1875,0 0.1875,0.03125 0.15625,0.03125 0.15625,0.0625 0.125,0.03125 0.125,0.03125 0.25,0.09375 0.1875,0.09375 0.21875,0.125 0.21875,0.15625 0.1875,0.15625 0.1875,0.1875 0.1875,0.1875 0.1875,0.1875 0.34375,0.46875 0.3125,0.4375 0.3125,0.5 0.25,0.46875 0.4375,0.9375 0.40625,0.84375 0.15625,0.3125 0.15625,0.25 0.0625,0.09375 0.0625,0.09375 0.0625,0.0625 0.0625,0 0.375,0.09375 0.34375,0.0625 0.34375,0 0.3125,-0.03125 0.3125,-0.0625 0.3125,-0.0625 0.28125,-0.125 0.28125,-0.125 0.25,-0.15625 0.21875,-0.15625 0.21875,-0.1875 0.1875,-0.21875 0.15625,-0.1875 0.15625,-0.1875 0.125,-0.1875 0.125,-0.1875 0.0937,-0.25 0.0937,-0.28125 0.0625,-0.3125 0.0312,-0.3125 0.0312,-0.34375 0.0312,-0.34375 0,-0.34375 -0.0312,-0.34375 0,-0.375 -0.0312,-0.34375 -0.0312,-0.34375 -0.0625,-0.34375 -0.0625,-0.3125 -0.0625,-0.3125 -0.0625,-0.28125 -0.0937,-0.25 -0.15625,-0.375 -0.15625,-0.34375 -0.21875,-0.34375 -0.21875,-0.375 -0.25,-0.40625 -0.3125,-0.375 -0.28125,-0.375 -0.34375,-0.34375 -0.3125,-0.34375 -0.34375,-0.34375 -0.34375,-0.3125 -0.34375,-0.3125 -0.3125,-0.25 -0.34375,-0.25 -0.34375,-0.1875 -0.3125,-0.1875 -0.21875,-0.0625 -0.21875,-0.0625 -0.21875,-0.0625 -0.25,-0.0625 -0.25,-0.0625 -0.21875,-0.03125 -0.25,-0.03125 -0.25,-0.0625 -0.34375,-0.125 -0.40625,-0.1875 -0.4375,-0.15625 -0.46875,-0.125 -0.25,-0.0625 -0.25,-0.03125 -0.25,-0.03125 -0.28125,0 -0.28125,0 -0.28125,0.03125 -0.28125,0.09375 -0.28125,0.0625 -0.625,0.25 -0.625,0.28125 -0.59375,0.3125 -0.53125,0.3125 -0.53125,0.3125 -0.5,0.3125 -0.5,0.375 -0.46875,0.34375 -0.90625,0.75 -0.90625,0.75 -0.90625,0.75 -0.9375,0.78125 -0.34375,0.28125 -0.375,0.28125 -0.375,0.25 -0.375,0.28125 -0.375,0.28125 -0.375,0.28125 -0.34375,0.3125 -0.375,0.28125 -0.5625,0.5 -0.59375,0.5625 -0.625,0.5625 -0.65625,0.625 -0.65625,0.65625 -0.65625,0.6875 -0.65625,0.71875 -0.65625,0.6875 -0.65625,0.71875 -0.59375,0.75 -0.625,0.71875 -0.5625,0.75 -0.53125,0.6875 -0.53125,0.6875 -0.46875,0.71875 -0.40625,0.656248 -0.25,0.40625 -0.28125,0.375 -0.25,0.40625 -0.3125,0.375 -0.5625,0.6875 -0.53125,0.71875 -0.28125,0.34375 -0.25,0.40625 -0.25,0.375 -0.25,0.4375 -0.21875,0.4375 -0.21875,0.46875 -0.15625,0.5 -0.15625,0.5625 -0.0937,0.21875 -0.0937,0.21875 -0.15625,0.25 -0.15625,0.21875 -0.15625,0.25 -0.15625,0.25 -0.125,0.25 -0.0937,0.21875 -0.0312,0.25 -0.0312,0.25 0,0.21875 0.0312,0.21875 0,0.21875 0,0.21875 -0.0312,0.25 -0.0312,0.25 -0.125,0.5 -0.125,0.59375 -0.0937,0.625 -0.0937,0.6875 -0.0312,0.3125 -0.0312,0.34375 0,0.375 0,0.3125 0.0312,0.34375 0.0312,0.34375 0.0625,0.3125 0.0937,0.34375 0.0625,0.125 0.0625,0.125 0.0937,0.125 0.0937,0.125 0.125,0.125 0.0625,0.125 0.0937,0.125 0.0625,0.125 0.0937,0.25 0.0625,0.28125 0.0625,0.21875 0.0625,0.25 0.0312,0.28125 0.0625,0.21875 0.0625,0.25 0.0937,0.25 0.0937,0.15625 0.0937,0.15625 0.125,0.15625 0.125,0.125 0.0937,0.125 0.125,0.125 0.125,0.0937 0.0625,0.125 0.375,0.5625 0.34375,0.5 0.3125,0.4375 0.3125,0.40625 0.15625,0.21875 0.1875,0.1875 0.1875,0.15625 0.1875,0.1875 0.21875,0.1875 0.25,0.1875 0.25,0.15625 0.28125,0.1875 0.375,0.21875 0.40625,0.21875 0.40625,0.15625 0.46875,0.21875 0.4375,0.1875 0.46875,0.1875 0.46875,0.15625 0.5,0.15625 0.96875,0.3125 1,0.25 0.96875,0.25 0.90625,0.21875 0.25,0 0.21875,0 0.21875,0 0.25,-0.0312 0.25,-0.0625 0.21875,0 0.21875,0 0.21875,0 0.0937,0.0625 0.0937,0.0625 0.125,0.0937 0.0937,0.125 0.125,0.0937 0.0937,0.0937 0.125,0.0625 0.0625,0 0.375,0.0625 0.4375,0.0625 0.4375,0 0.4375,-0.0312 0.46875,-0.0312 0.4375,-0.0625 0.40625,-0.0312 0.40625,-0.0312 1.09375,0 1.03125,-0.0625 0.96875,-0.0625 0.9375,-0.125 0.875,-0.0937 0.8125,-0.15625 0.84375,-0.15625 0.75,-0.1875 0.78125,-0.21875 0.71875,-0.21875 0.71875,-0.28125 0.6875,-0.28125 0.6875,-0.3125 0.6875,-0.34375 0.6875,-0.34375 0.65625,-0.40625 0.0625,0.4375 0.0312,0.46875 0.0312,0.5 0.0312,0.5 -0.0312,1.03125 -0.0312,1.0625 -0.0625,1.0625 -0.0625,1 -0.0625,1 -0.0625,0.90625 0,0.5 0.0312,0.46875 0.0312,0.4375 0,0.40625 0.0625,0.40625 0,0.46875 0.0312,0.46875 0,0.5 0.0312,0.0937 0.0312,0.0625 0.0625,0.0625 0.0625,0.0625 0.15625,0.125 0.1875,0.125 0.21875,0.0625 0.25,0.125 0.25,0.0937 0.25,0.0312 0.5625,0.15625 0.5,0.15625 0.28125,0.0937 0.1875,0.0625 0.1875,0.0937 0.15625,0.0937 0.21875,0.125 0.1875,0.0937 0.21875,0.0625 0.25,0.0312 0.1875,0.0312 0.25,0 0.21875,-0.0312 0.21875,0 0.40625,-0.0937 0.34375,-0.0937 0.28125,-0.125 0.15625,-0.0625"
         style="font-size:64px;font-variant:normal;font-stretch:normal;font-family:'GreenpeaceFont (deutsch)';-inkscape-font-specification:'GreenpeaceFont (deutsch)';fill:#ffffff;fill-opacity:1"
         id="path3019"
         inkscape:connector-curvature="0" />
      <path
         d="m 238.07143,90.263962 0.21875,-0.0625 0.25,-0.0625 0.25,-0.03125 0.21875,0 0.21875,0.03125 0.25,0.0625 0.21875,0.03125 0.25,0.09375 0.21875,0.0625 0.21875,0.125 0.21875,0.09375 0.21875,0.125 0.40625,0.28125 0.40625,0.3125 0.375,0.34375 0.34375,0.375 0.3125,0.34375 0.25,0.34375 0.25,0.34375 0.1875,0.28125 0.15625,0.28125 0.0937,0.21875 0.0625,0.21875 0.0625,0.21875 0.0312,0.21875 0.0312,0.21875 0,0.4375 -0.0312,0.46875 -0.0312,0.4375 -0.0937,0.4375 -0.0937,0.40625 -0.0625,0.375 -0.0937,0.3125 -0.125,0.28125 -0.15625,0.28125 -0.1875,0.28125 -0.1875,0.28125 -0.21875,0.25 -0.21875,0.28125 -0.28125,0.25 -0.53125,0.46875 -0.53125,0.468748 -0.53125,0.375 -0.5,0.34375 -0.125,0.0937 -0.15625,0.125 -0.125,0.15625 -0.125,0.15625 -0.21875,0.3125 -0.25,0.3125 -0.25,0.3125 -0.28125,0.28125 -0.15625,0.0937 -0.15625,0.125 -0.15625,0.0625 -0.1875,0.0625 -0.40625,0.0625 -0.375,0 -0.3125,0 -0.25,-0.0625 -0.25,-0.125 -0.1875,-0.125 -0.1875,-0.1875 -0.125,-0.21875 -0.125,-0.21875 -0.0937,-0.28125 -0.0312,-0.28125 -0.0625,-0.3125 0,-0.34375 0,-0.3125 0.0625,-0.34375 0.0312,-0.34375 0.125,-0.749998 0.125,-0.71875 0.21875,-0.6875 0.1875,-0.65625 0.34375,-1.0625 0.1875,-0.625 0.0312,-0.25 0.0312,-0.21875 0,-0.25 -0.0312,-0.25 -0.0312,-0.5 -0.0625,-0.53125 -0.0937,-0.5 0,-0.46875 0,-0.25 0,-0.25 0.0312,-0.21875 0.0625,-0.21875 0.0937,-0.125 0.125,-0.21875 0.21875,-0.21875 0.25,-0.25 0.25,-0.25 0.25,-0.1875 0.1875,-0.1875 0.15625,-0.0625 m -2.125,-7.09375 -0.75,0.125 -0.90625,0.1875 -1.03125,0.21875 -1.03125,0.28125 -0.5,0.15625 -0.5,0.15625 -0.40625,0.125 -0.40625,0.15625 -0.3125,0.15625 -0.28125,0.1875 -0.0937,0.0625 -0.0937,0.0625 -0.0625,0.09375 -0.0312,0.09375 -0.0625,0.1875 -0.0625,0.25 -0.0625,0.25 -0.0312,0.34375 -0.0625,0.375 -0.0937,0.375 -0.0625,0.375 -0.0937,0.40625 -0.125,0.4375 -0.125,0.40625 -0.15625,0.375 -0.125,0.34375 -0.0625,0.15625 -0.0312,0.1875 -0.0625,0.15625 0,0.1875 0,0.1875 0,0.1875 0.0312,0.1875 0.0312,0.21875 0.0937,0.25 0.0937,0.25 0.0937,0.21875 0.0937,0.21875 0.21875,0.40625 0.21875,0.3125 0.46875,0.5625 0.46875,0.5 0.1875,0.25 0.1875,0.25 0.0625,0.15625 0.0625,0.125 0.0625,0.125 0.0312,0.15625 0.0625,0.15625 0,0.15625 0.0312,0.1875 0,0.1875 -0.0312,0.1875 -0.0312,0.21875 -0.0312,0.25 -0.0625,0.25 -0.21875,0.78125 -0.28125,1.03125 -0.3125,1.1875 -0.34375,1.218748 -0.21875,0.625 -0.21875,0.5625 -0.21875,0.5625 -0.25,0.5 -0.125,0.21875 -0.15625,0.21875 -0.125,0.21875 -0.125,0.1875 -0.15625,0.15625 -0.15625,0.125 -0.15625,0.125 -0.15625,0.0937 -0.15625,0.0937 -0.15625,0.0625 -0.15625,0.0312 -0.1875,0.0312 -0.375,0.0625 -0.3125,0.0312 -0.34375,0.0312 -0.3125,0.0312 -0.125,0.0312 -0.125,0.0312 -0.0937,0.0312 -0.0937,0.0625 -0.0625,0.125 -0.0625,0.21875 -0.0625,0.25 -0.0312,0.3125 -0.0312,0.375 -0.0625,0.375 0,0.4375 -0.0312,0.4375 0,0.4375 0.0312,0.46875 0,0.46875 0.0625,0.46875 0.0625,0.4375 0.125,0.40625 0.125,0.40625 0.15625,0.34375 0.15625,0.21875 0.1875,0.21875 0.1875,0.1875 0.25,0.21875 0.25,0.1875 0.1875,0.21875 0.0937,0.0937 0.0625,0.0937 0.0625,0.0937 0.0625,0.0937 0.0625,0.1875 0,0.1875 0.0312,0.21875 0.0312,0.21875 0,0.5 -0.0312,0.46875 -0.0312,0.5 -0.0625,0.4375 -0.0625,0.34375 -0.0312,0.21875 -0.21875,0.96875 -0.21875,0.96875 -0.1875,1 -0.125,0.96875 -0.0625,0.46875 -0.0625,0.5 0,0.4375 -0.0312,0.46875 -0.0312,0.46875 0.0312,0.4375 0.0312,0.4375 0.0312,0.40625 0.0625,0.4375 0.0937,0.375 0.0625,0.40625 0.125,0.375 0.15625,0.34375 0.15625,0.34375 0.1875,0.3125 0.21875,0.28125 0.21875,0.3125 0.25,0.25 0.28125,0.21875 0.3125,0.21875 0.34375,0.1875 0.375,0.1875 0.375,0.125 0.4375,0.125 0.21875,0.0312 0.25,0.0312 0.25,0.0312 0.25,0.0312 0.21875,0 0.21875,-0.0312 0.0625,-0.0312 0.0625,0 0.0625,-0.0312 0.0625,-0.0625 0.25,-0.40625 0.21875,-0.375 0.1875,-0.40625 0.15625,-0.375 0.125,-0.375 0.0937,-0.375 0.0625,-0.375 0.0625,-0.375 0,-0.34375 0,-0.375 0,-0.375 -0.0312,-0.34375 -0.0937,-0.6875 -0.125,-0.71875 -0.15625,-0.71875 -0.125,-0.6875 -0.0625,-0.375 -0.0625,-0.375 -0.0312,-0.34375 -0.0312,-0.375 -0.0312,-0.375 0.0312,-0.40625 0.0312,-0.375 0.0312,-0.375 0.0937,-0.40625 0.0625,-0.40625 0.125,-0.40625 0.1875,-0.40625 0.15625,-0.375 0.15625,-0.34375 0.15625,-0.28125 0.15625,-0.28125 0.15625,-0.21875 0.15625,-0.15625 0.125,-0.15625 0.1875,-0.0937 0.15625,-0.0937 0.1875,0 0.1875,-0.0312 0.1875,0.0312 0.25,0.0312 0.21875,0.0937 0.25,0.0625 0.25,0.125 0.40625,0.21875 0.46875,0.25 0.4375,0.3125 0.5,0.3125 0.9375,0.65625 0.90625,0.71875 0.90625,0.6875 0.75,0.625 0.65625,0.5 0.46875,0.375 0.3125,0.25 0.34375,0.25 0.3125,0.25 0.3125,0.3125 0.5625,0.59375 0.5625,0.625 1.09375,1.25 1.03125,1.15625 0.28125,0.28125 0.25,0.28125 0.28125,0.21875 0.28125,0.25 0.28125,0.1875 0.28125,0.1875 0.28125,0.1875 0.3125,0.125 0.3125,0.125 0.34375,0.0937 0.3125,0.0625 0.34375,0.0312 0.34375,0 0.40625,0 0.375,-0.0937 0.375,-0.0937 0.25,-0.0937 0.25,-0.15625 0.28125,-0.1875 0.3125,-0.25 0.3125,-0.28125 0.3125,-0.34375 0.3125,-0.34375 0.3125,-0.375 0.28125,-0.375 0.28125,-0.4375 0.21875,-0.40625 0.1875,-0.4375 0.0625,-0.1875 0.0625,-0.21875 0.0625,-0.21875 0,-0.1875 0.0312,-0.21875 0,-0.1875 -0.0312,-0.21875 -0.0312,-0.1875 -0.0312,-0.15625 -0.0625,-0.1875 -0.0937,-0.1875 -0.0937,-0.25 -0.0625,-0.1875 -0.0937,-0.21875 -0.0937,-0.1875 -0.0625,-0.15625 -0.125,-0.1875 -0.0937,-0.1875 -0.0937,-0.15625 -0.125,-0.15625 -0.28125,-0.28125 -0.28125,-0.25 -0.3125,-0.25 -0.34375,-0.25 -0.34375,-0.21875 -0.375,-0.21875 -0.78125,-0.40625 -0.78125,-0.4375 -0.4375,-0.1875 -0.40625,-0.25 -0.375,-0.21875 -0.40625,-0.25 -0.28125,-0.25 -0.25,-0.21875 -0.28125,-0.25 -0.25,-0.25 -0.25,-0.25 -0.28125,-0.25 -0.28125,-0.21875 -0.25,-0.21875 -0.28125,-0.21875 -0.3125,-0.25 -0.25,-0.28125 -0.25,-0.25 -0.25,-0.28125 -0.25,-0.28125 -0.21875,-0.3125 -0.21875,-0.28125 -0.0625,-0.0625 -0.0312,-0.0937 -0.0312,-0.125 0,-0.125 0,-0.125 0,-0.15625 0.0312,-0.125 0.0625,-0.15625 0.0937,-0.1875 0.1875,-0.1875 0.1875,-0.21875 0.1875,-0.1875 0.25,-0.21875 0.1875,-0.15625 0.1875,-0.1875 0.15625,-0.1875 0.5625,-0.78125 0.5625,-0.8125 0.5625,-0.84375 0.53125,-0.875 0.25,-0.4375 0.25,-0.46875 0.21875,-0.5 0.21875,-0.46875 0.1875,-0.5 0.1875,-0.5 0.15625,-0.53125 0.15625,-0.53125 0.125,-0.656248 0.125,-0.65625 0.0625,-0.625 0.0625,-0.65625 0.0312,-0.65625 0,-0.625 -0.0312,-0.625 -0.0625,-0.59375 -0.0625,-0.625 -0.0937,-0.625 -0.0937,-0.59375 -0.15625,-0.5625 -0.15625,-0.59375 -0.15625,-0.5625 -0.1875,-0.5625 -0.21875,-0.53125 -0.21875,-0.53125 -0.21875,-0.5 -0.28125,-0.5 -0.25,-0.46875 -0.25,-0.46875 -0.28125,-0.4375 -0.28125,-0.4375 -0.3125,-0.375 -0.3125,-0.40625 -0.3125,-0.375 -0.3125,-0.3125 -0.3125,-0.3125 -0.3125,-0.3125 -0.34375,-0.25 -0.3125,-0.25 -0.34375,-0.21875 -0.3125,-0.1875 -0.34375,-0.15625 -0.34375,-0.15625 -0.375,-0.125 -0.34375,-0.125 -0.375,-0.125 -0.375,-0.125 -0.375,-0.125 -0.5,-0.125 -0.53125,-0.09375 -0.625,-0.09375 -0.625,-0.0625 -0.6875,-0.03125 -0.71875,0.03125 -0.375,0 -0.375,0.0625 -0.375,0.03125 -0.375,0.0625"
         style="font-size:64px;font-variant:normal;font-stretch:normal;font-family:'GreenpeaceFont (deutsch)';-inkscape-font-specification:'GreenpeaceFont (deutsch)';fill:#ffffff;fill-opacity:1"
         id="path3021"
         inkscape:connector-curvature="0" />
      <path
         d="m 277.16518,84.201462 -0.71875,0.1875 -0.71875,0.21875 -0.71875,0.1875 -0.71875,0.21875 -0.6875,0.21875 -0.6875,0.1875 -0.71875,0.1875 -0.6875,0.1875 -0.46875,0.125 -0.4375,0.0625 -0.40625,0.0625 -0.4375,0.0625 -0.40625,0.0625 -0.4375,0.09375 -0.46875,0.0625 -0.46875,0.125 -0.25,0.09375 -0.34375,0.125 -0.34375,0.15625 -0.34375,0.1875 -0.375,0.1875 -0.34375,0.125 -0.3125,0.15625 -0.28125,0.09375 -0.34375,0.0625 -0.3125,0.0625 -0.28125,0.03125 -0.25,0.03125 -0.25,0.03125 -0.28125,0.03125 -0.34375,0.0625 -0.40625,0.125 -0.15625,0.0625 -0.1875,0.0625 -0.25,0.09375 -0.21875,0.09375 -0.25,0.09375 -0.25,0.09375 -0.1875,0.0625 -0.15625,0.03125 -0.46875,0.125 -0.5,0.125 -0.4375,0.125 -0.46875,0.09375 -0.4375,0.15625 -0.40625,0.15625 -0.1875,0.09375 -0.1875,0.125 -0.15625,0.125 -0.1875,0.125 -0.15625,0.15625 -0.1875,0.1875 -0.125,0.15625 -0.15625,0.21875 -0.125,0.1875 -0.125,0.1875 -0.0937,0.21875 -0.125,0.21875 -0.0625,0.21875 -0.0937,0.21875 -0.0625,0.25 -0.0625,0.21875 -0.0937,0.46875 -0.0312,0.5 -0.0312,0.46875 0.0625,0.53125 0.0625,0.5 0.0625,0.5 0.125,0.53125 0.1875,0.5 0.1875,0.5 0.21875,0.5 0.125,0.1875 0.15625,0.1875 0.15625,0.15625 0.1875,0.125 0.34375,0.25 0.34375,0.25 0.1875,0.125 0.125,0.1875 0.125,0.1875 0.125,0.21875 0.0312,0.125 0.0312,0.15625 0,0.15625 0.0312,0.15625 0,0.374998 -0.0625,0.40625 -0.125,0.75 -0.15625,0.65625 -0.15625,0.625 -0.21875,0.59375 -0.1875,0.53125 -0.21875,0.53125 -0.21875,0.4375 -0.21875,0.4375 -0.4375,0.84375 -0.40625,0.78125 -0.15625,0.375 -0.1875,0.375 -0.125,0.40625 -0.125,0.375 -0.0937,0.53125 -0.0938,0.5625 -0.0937,0.53125 -0.0312,0.53125 -0.0625,0.53125 -0.0312,0.53125 -0.0312,0.53125 -0.0312,0.5625 -0.0625,0.6875 0,0.6875 0.0312,0.6875 0.0312,0.6875 0.0625,0.65625 0.0937,0.65625 0.0937,0.65625 0.125,0.625 0.15625,0.625 0.1875,0.59375 0.21875,0.625 0.25,0.59375 0.28125,0.5625 0.34375,0.5625 0.1875,0.28125 0.1875,0.25 0.1875,0.28125 0.21875,0.25 0.0937,0.125 0.15625,0.125 0.15625,0.125 0.1875,0.125 0.4375,0.28125 0.53125,0.3125 0.625,0.28125 0.625,0.3125 0.71875,0.3125 0.6875,0.28125 0.71875,0.28125 0.75,0.28125 0.6875,0.25 0.6875,0.21875 0.625,0.21875 0.59375,0.1875 0.5,0.125 0.4375,0.125 0.53125,0.0937 0.46875,0.0312 0.5,0.0312 0.46875,0 0.46875,-0.0312 0.40625,-0.0312 0.4375,-0.0937 0.40625,-0.0625 0.8125,-0.1875 0.78125,-0.21875 0.75,-0.1875 0.75,-0.15625 0.25,-0.21875 0.21875,-0.25 0.21875,-0.25 0.1875,-0.25 0.21875,-0.25 0.15625,-0.25 0.15625,-0.25 0.0625,-0.21875 0.0937,-0.3125 0.0625,-0.25 0.0312,-0.3125 0.0625,-0.3125 0,-0.28125 0,-0.28125 0,-0.34375 0,-0.3125 -0.0625,-0.59375 -0.0937,-0.59375 -0.125,-0.59375 -0.15625,-0.5625 -0.125,-0.5 -0.1875,-0.5 -0.21875,-0.4375 -0.15625,-0.375 -0.1875,-0.34375 -0.15625,-0.25 -0.0937,-0.0625 -0.0625,-0.0937 -0.0937,-0.0625 -0.0625,-0.0312 -0.3125,0.0312 -0.3125,0.0312 -0.28125,0.0625 -0.25,0.0937 -0.25,0.0937 -0.21875,0.125 -0.1875,0.125 -0.1875,0.125 -0.375,0.25 -0.40625,0.28125 -0.1875,0.0937 -0.21875,0.0937 -0.25,0.0937 -0.25,0.0937 -0.28125,0.0625 -0.3125,0.0625 -0.34375,0.0312 -0.28125,0.0312 -0.34375,0 -0.3125,0 -0.3125,0 -0.34375,0 -0.625,-0.0937 -0.625,-0.0937 -0.625,-0.15625 -0.59375,-0.1875 -0.5625,-0.21875 -0.53125,-0.21875 -0.5,-0.25 -0.46875,-0.25 -0.4375,-0.28125 -0.40625,-0.28125 -0.3125,-0.28125 -0.3125,-0.28125 -0.0937,-0.125 -0.0937,-0.125 -0.0625,-0.15625 -0.0625,-0.15625 -0.0625,-0.15625 -0.0625,-0.1875 0,-0.15625 -0.0312,-0.1875 -0.0312,-0.375 0.0312,-0.34375 0.0312,-0.15625 0.0312,-0.1875 0.0312,-0.125 0.0625,-0.15625 0.125,-0.25 0.1875,-0.3125 0.25,-0.28125 0.25,-0.3125 0.28125,-0.28125 0.28125,-0.25 0.125,-0.125 0.15625,-0.0625 0.125,-0.0937 0.125,-0.0312 0.1875,-0.0625 0.21875,-0.0625 0.1875,-0.0312 0.1875,-0.0312 0.34375,-0.0312 0.375,0 0.34375,0 0.375,-0.0312 0.375,-0.0312 0.4375,-0.0937 0.5625,-0.125 0.625,-0.1875 0.65625,-0.15625 0.625,-0.1875 0.65625,-0.15625 0.59375,-0.15625 0.5625,-0.15625 0.53125,-0.125 0.25,-0.0625 0.25,-0.0312 0.25,0 0.25,0 0.5,0.0625 0.5625,0.0937 0.5625,0.0625 0.59375,0.0312 0.28125,0 0.3125,0 0.3125,-0.0312 0.28125,-0.0625 0.65625,-0.15625 0.71875,-0.125 0.75,-0.15625 0.75,-0.15625 0.71875,-0.15625 0.625,-0.15625 0.25,-0.0937 0.25,-0.0937 0.1875,-0.0937 0.125,-0.0937 0.0312,-0.0937 0.0625,-0.125 0.0625,-0.15625 0,-0.15625 0.0312,-0.40625 0,-0.4375 -0.0312,-0.4375 -0.0312,-0.4375 -0.0625,-0.375 -0.0625,-0.3125 -0.1875,-0.625 -0.15625,-0.65625 -0.0937,-0.34375 -0.0937,-0.3125 -0.0937,-0.3125 -0.125,-0.28125 -0.125,-0.3125 -0.15625,-0.25 -0.15625,-0.25 -0.1875,-0.21875 -0.1875,-0.1875 -0.25,-0.1875 -0.125,-0.0625 -0.125,-0.0625 -0.125,-0.0625 -0.15625,-0.0625 -0.1875,-0.0312 -0.21875,-0.0312 -0.21875,-0.0625 -0.1875,0 -0.46875,0 -0.5,0.0625 -0.5,0.0625 -0.53125,0.125 -0.53125,0.125 -0.5625,0.1875 -1.15625,0.34375 -1.21875,0.375 -0.625,0.1875 -0.65625,0.15625 -0.625,0.15625 -0.625,0.125 -0.59375,0.0625 -0.59375,0.0625 -0.53125,0.0625 -0.53125,0 -0.46875,-0.0312 -0.46875,-0.0625 -0.21875,-0.0312 -0.1875,-0.0625 -0.1875,-0.0625 -0.1875,-0.0625 -0.15625,-0.0937 -0.15625,-0.0937 -0.15625,-0.125 -0.125,-0.0937 -0.0937,-0.125 -0.0937,-0.15625 -0.0937,-0.125 -0.0625,-0.1875 -0.0625,-0.15625 -0.0312,-0.1875 0,-0.21875 0,-0.21875 0,-0.21875 0.0312,-0.25 0.0625,-0.25 0.0625,-0.281248 0.125,-0.46875 0.125,-0.40625 0.0937,-0.375 0.125,-0.34375 0.125,-0.3125 0.15625,-0.3125 0.0937,-0.15625 0.0937,-0.125 0.125,-0.1875 0.15625,-0.125 0.28125,-0.25 0.3125,-0.25 0.3125,-0.21875 0.375,-0.21875 0.40625,-0.1875 0.375,-0.15625 0.4375,-0.1875 0.4375,-0.125 0.9375,-0.28125 0.9375,-0.21875 1.03125,-0.25 1.0625,-0.21875 0.375,-0.09375 0.40625,-0.09375 0.375,-0.09375 0.375,-0.125 0.40625,-0.125 0.40625,-0.125 0.375,-0.09375 0.34375,-0.0625 0.5,-0.09375 0.46875,-0.0625 0.4375,-0.03125 0.46875,-0.0625 0.4375,-0.0625 0.4375,-0.0625 0.40625,-0.0625 0.40625,-0.09375 0.25,-0.0625 0.28125,-0.09375 0.34375,-0.09375 0.375,-0.09375 0.40625,-0.125 0.4375,-0.09375 0.4375,-0.09375 0.5,-0.09375 0.46875,-0.09375 0.4375,-0.09375 0.4375,-0.03125 0.4375,-0.09375 0.40625,-0.0625 0.3125,-0.09375 0.125,-0.03125 0.125,-0.0625 0.125,-0.0625 0.0625,-0.03125 0.0937,-0.09375 0.0312,-0.09375 0.0625,-0.15625 0,-0.125 0,-0.1875 0,-0.1875 -0.0312,-0.1875 -0.0312,-0.1875 -0.125,-0.5 -0.15625,-0.46875 -0.1875,-0.53125 -0.21875,-0.53125 -0.46875,-1.0625 -0.4375,-0.9375 -0.34375,-0.71875 -0.21875,-0.40625 -0.0312,-0.03125 0,-0.03125 -0.0312,0 0,-0.03125 0,-0.03125 -0.0312,0 0,-0.03125 -0.0312,-0.03125 -0.0625,-0.125 -0.0625,-0.125 -0.0937,-0.125 -0.0937,-0.09375 -0.125,-0.09375 -0.125,-0.09375 -0.15625,-0.09375 -0.1875,-0.09375 -0.34375,-0.125 -0.40625,-0.125 -0.40625,-0.0625 -0.46875,-0.0625 -0.46875,-0.03125 -0.5,-0.03125 -0.46875,0 -0.5,0.03125 -0.5,0.03125 -0.4375,0.09375 -0.4375,0.0625 -0.4375,0.09375"
         style="font-size:64px;font-variant:normal;font-stretch:normal;font-family:'GreenpeaceFont (deutsch)';-inkscape-font-specification:'GreenpeaceFont (deutsch)';fill:#ffffff;fill-opacity:1"
         id="path3023"
         inkscape:connector-curvature="0" />
      <path
         d="m 306.41518,86.576462 -0.5625,0.0625 -0.46875,0.09375 -0.4375,0.09375 -0.40625,0.0625 -0.65625,0.1875 -0.5625,0.1875 -0.4375,0.1875 -0.40625,0.15625 -0.375,0.15625 -0.4375,0.125 -0.4375,0.09375 -0.4375,0.09375 -0.40625,0.0625 -0.4375,0.0625 -0.8125,0.0625 -0.78125,0.09375 -0.78125,0.0625 -0.8125,0.125 -0.4375,0.0625 -0.40625,0.0625 -0.46875,0.0625 -0.4375,0.125 -0.46875,0.125 -0.46875,0.1875 -0.46875,0.1875 -0.46875,0.1875 -0.46875,0.21875 -0.4375,0.1875 -0.4375,0.1875 -0.40625,0.15625 -0.3125,0.0625 -0.25,0.09375 -0.28125,0.03125 -0.28125,0.03125 -0.25,0.0625 -0.21875,0.03125 -0.25,0.09375 -0.21875,0.125 -0.0937,0.0625 -0.125,0.125 -0.0625,0.125 -0.0937,0.125 -0.0625,0.125 -0.0625,0.15625 -0.0312,0.15625 -0.0625,0.1875 -0.0625,0.40625 -0.0625,0.4375 0,0.4375 -0.0312,0.4375 0,0.96875 0,0.9375 -0.0312,0.40625 0,0.40625 -0.0625,0.375 -0.0312,0.3125 -0.0937,0.25 -0.0937,0.28125 -0.0937,0.25 -0.15625,0.28125 -0.375,0.53125 -0.375,0.5625 -0.375,0.5625 -0.375,0.531248 -0.15625,0.28125 -0.15625,0.25 -0.125,0.28125 -0.0937,0.28125 -0.4375,1.21875 -0.40625,1.34375 -0.40625,1.4375 -0.375,1.46875 -0.1875,0.75 -0.15625,0.78125 -0.15625,0.78125 -0.15625,0.78125 -0.125,0.78125 -0.0625,0.78125 -0.0937,0.78125 -0.0625,0.78125 -0.0312,0.78125 -0.0312,0.78125 0.0312,0.75 0.0312,0.75 0.0937,0.75 0.0937,0.71875 0.125,0.71875 0.15625,0.6875 0.21875,0.6875 0.25,0.65625 0.3125,0.59375 0.3125,0.625 0.375,0.5625 0.4375,0.53125 0.46875,0.5 0.5,0.5 0.1875,0.125 0.15625,0.125 0.15625,0.0937 0.1875,0.125 0.375,0.15625 0.40625,0.15625 0.40625,0.15625 0.40625,0.15625 0.40625,0.125 0.40625,0.1875 0.71875,0.25 0.65625,0.25 0.59375,0.15625 0.5625,0.125 0.5,0.125 0.46875,0.0625 0.46875,0.0312 0.4375,0.0312 0.875,0 0.9375,0 0.5,0 0.53125,0.0312 0.5625,0.0312 0.65625,0.0625 0.15625,0 0.125,0.0312 0.15625,0.0312 0.125,0 0.15625,0.0312 0.1875,0 0.1875,0 0.25,-0.0312 0.34375,-0.125 0.375,-0.1875 0.375,-0.21875 0.40625,-0.1875 0.375,-0.25 0.375,-0.25 0.40625,-0.1875 0.375,-0.1875 0.1875,-0.125 0.1875,-0.0937 0.15625,-0.125 0.15625,-0.15625 0.125,-0.125 0.15625,-0.1875 0.125,-0.15625 0.0937,-0.1875 0.125,-0.1875 0.0937,-0.21875 0.0937,-0.21875 0.0937,-0.1875 0.125,-0.4375 0.0937,-0.5 0.0937,-0.46875 0.0312,-0.46875 0,-0.46875 -0.0312,-0.46875 -0.0937,-0.4375 -0.0625,-0.4375 -0.0937,-0.40625 -0.15625,-0.375 -0.0937,-0.15625 -0.0937,-0.1875 -0.125,-0.15625 -0.0937,-0.1875 -0.125,-0.1875 -0.125,-0.1875 -0.125,-0.15625 -0.0937,-0.1875 -0.125,-0.1875 -0.125,-0.21875 -0.0937,-0.15625 -0.0937,-0.15625 -0.125,-0.1875 -0.0937,-0.0937 -0.125,-0.0937 -0.125,-0.0312 -0.3125,0.0312 -0.28125,0.0312 -0.21875,0.0625 -0.1875,0.0937 -0.1875,0.125 -0.125,0.125 -0.125,0.125 -0.125,0.15625 -0.21875,0.28125 -0.25,0.28125 -0.125,0.125 -0.125,0.0937 -0.1875,0.125 -0.21875,0.0625 -0.59375,0.15625 -0.59375,0.0937 -0.625,0.0937 -0.625,0.0625 -0.6875,0.0312 -0.65625,0.0312 -0.6875,0.0312 -0.625,-0.0312 -0.65625,-0.0312 -0.65625,-0.0312 -0.59375,-0.0937 -0.59375,-0.0937 -0.5625,-0.0937 -0.5,-0.15625 -0.4375,-0.125 -0.40625,-0.15625 -0.375,-0.1875 -0.375,-0.21875 -0.1875,-0.0937 -0.1875,-0.15625 -0.15625,-0.125 -0.15625,-0.15625 -0.125,-0.1875 -0.125,-0.1875 -0.0625,-0.1875 -0.0937,-0.21875 -0.0312,-0.21875 0,-0.25 0,-0.28125 0.0312,-0.25 0.125,-0.375 0.15625,-0.3125 0.1875,-0.28125 0.25,-0.28125 0.25,-0.28125 0.3125,-0.21875 0.3125,-0.21875 0.375,-0.1875 0.375,-0.21875 0.40625,-0.15625 0.40625,-0.15625 0.4375,-0.125 0.46875,-0.125 0.46875,-0.125 0.5,-0.125 0.5,-0.0937 1.03125,-0.1875 1.0625,-0.15625 1.0625,-0.125 1.03125,-0.125 1.03125,-0.125 0.96875,-0.125 0.90625,-0.1875 0.84375,-0.15625 0.375,-0.125 0.46875,-0.125 0.4375,-0.1875 0.5,-0.15625 0.5,-0.1875 0.5,-0.1875 0.5,-0.15625 0.46875,-0.1875 0.71875,-0.1875 0.625,-0.1875 0.5625,-0.15625 0.53125,-0.125 0.4375,-0.0937 0.375,-0.125 0.125,-0.0312 0.125,-0.0625 0.0625,-0.0625 0.0625,-0.0625 0.0312,-0.0625 0.0312,-0.0937 0.0312,-0.125 0,-0.15625 -0.0312,-0.375 -0.0625,-0.46875 -0.0937,-0.5 -0.15625,-0.5625 -0.15625,-0.5625 -0.1875,-0.625 -0.21875,-0.59375 -0.21875,-0.5625 -0.25,-0.53125 -0.25,-0.5 -0.15625,-0.21875 -0.125,-0.21875 -0.15625,-0.1875 -0.125,-0.15625 -0.125,-0.125 -0.125,-0.0937 -0.125,-0.0937 -0.125,-0.0625 -0.125,0 -0.15625,0 -0.15625,0 -0.21875,0.0312 -0.21875,0 -0.15625,0.0312 -0.1875,0.0312 -0.0937,0.0312 -0.90625,0.28125 -1.78125,0.625 -1.09375,0.34375 -1.21875,0.375 -0.625,0.1875 -0.625,0.15625 -0.65625,0.15625 -0.59375,0.125 -0.625,0.125 -0.59375,0.125 -0.5625,0.0625 -0.53125,0.0625 -0.5,0.0312 -0.46875,0 -0.4375,-0.0312 -0.375,-0.0937 -0.3125,-0.125 -0.25,-0.15625 -0.1875,-0.21875 -0.0937,-0.25 -0.0312,-0.3125 0.0625,-0.375 0.125,-0.4375 0.25,-0.5 0.125,-0.3125 0.1875,-0.375 0.1875,-0.406248 0.15625,-0.40625 0.1875,-0.40625 0.21875,-0.40625 0.21875,-0.34375 0.1875,-0.28125 0.40625,-0.4375 0.375,-0.375 0.40625,-0.34375 0.375,-0.3125 0.40625,-0.28125 0.375,-0.21875 0.40625,-0.1875 0.40625,-0.1875 0.40625,-0.15625 0.40625,-0.125 0.40625,-0.09375 0.4375,-0.125 0.84375,-0.125 0.875,-0.125 0.625,-0.125 0.625,-0.125 0.65625,-0.15625 0.65625,-0.15625 0.6875,-0.125 0.6875,-0.125 0.71875,-0.09375 0.75,-0.09375 0.625,-0.0625 0.65625,-0.09375 0.6875,-0.09375 0.6875,-0.125 0.6875,-0.125 0.6875,-0.09375 0.65625,-0.09375 0.65625,-0.03125 0.34375,0 0.34375,0 0.28125,0 0.28125,0 0.25,0 0.1875,0 0.125,0 0.0937,-0.03125 0.0625,-0.0625 0.0312,-0.03125 0.0312,-0.0625 0.0312,-0.0625 0,-0.125 0.0312,-0.15625 0,-0.15625 0,-0.1875 0.0625,-0.25 0.0625,-0.21875 0.0625,-0.1875 0.0625,-0.15625 0.0312,-0.15625 0.0312,-0.125 0,-0.15625 0,-0.125 0,-0.125 -0.0312,-0.125 -0.0625,-0.21875 -0.125,-0.25 -0.125,-0.1875 -0.15625,-0.21875 -0.375,-0.375 -0.40625,-0.375 -0.1875,-0.1875 -0.21875,-0.21875 -0.1875,-0.21875 -0.1875,-0.25 -0.0625,-0.125 -0.0625,-0.15625 -0.0625,-0.125 -0.0625,-0.125 -0.0625,-0.1875 -0.0625,-0.15625 -0.0625,-0.15625 -0.0625,-0.1875 -0.0312,-0.0625 -0.0937,-0.09375 -0.0625,-0.0625 -0.0937,-0.0625 -0.21875,-0.09375 -0.3125,-0.09375 -0.3125,-0.0625 -0.375,-0.03125 -0.40625,-0.03125 -0.40625,-0.03125 -0.84375,0.03125 -0.84375,0.0625 -0.78125,0.0625 -0.625,0.09375"
         style="font-size:64px;font-variant:normal;font-stretch:normal;font-family:'GreenpeaceFont (deutsch)';-inkscape-font-specification:'GreenpeaceFont (deutsch)';fill:#ffffff;fill-opacity:1"
         id="path3025"
         inkscape:connector-curvature="0" />
      <path
         d="m 318.41518,84.732712 -0.3125,0.125 -0.28125,0.125 -0.21875,0.1875 -0.25,0.21875 -0.1875,0.25 -0.125,0.25 -0.15625,0.3125 -0.125,0.3125 -0.0625,0.34375 -0.0625,0.375 -0.0625,0.375 -0.0312,0.40625 0,0.40625 0,0.4375 0,0.4375 0.0312,0.4375 0.1875,1.8125 0.1875,1.78125 0.0937,0.84375 0.0312,0.78125 0,0.375 0,0.34375 0,0.34375 -0.0312,0.28125 -0.0937,0.6875 -0.0625,0.6875 -0.0625,0.71875 -0.0625,0.65625 -0.0625,1.374998 -0.0937,1.3125 -0.0937,1.34375 -0.125,1.34375 -0.0625,0.65625 -0.0937,0.65625 -0.125,0.65625 -0.125,0.6875 -0.34375,1.59375 -0.34375,1.625 -0.375,1.59375 -0.34375,1.65625 -0.34375,1.625 -0.375,1.625 -0.375,1.65625 -0.40625,1.6875 -0.0625,0.40625 -0.0625,0.375 -0.0625,0.34375 -0.0312,0.3125 -0.0312,0.34375 0,0.28125 0,0.3125 0.0625,0.25 0.0312,0.25 0.0625,0.25 0.0625,0.21875 0.0937,0.21875 0.0937,0.1875 0.125,0.21875 0.125,0.15625 0.125,0.15625 0.15625,0.15625 0.15625,0.15625 0.1875,0.125 0.1875,0.125 0.1875,0.125 0.1875,0.125 0.21875,0.0937 0.21875,0.0937 0.46875,0.1875 0.5,0.125 0.5625,0.125 0.5625,0.15625 0.15625,0.0625 0.1875,0.0625 0.21875,0.0625 0.21875,0.0625 0.125,0 0.125,0 0.0937,0 0.125,0 0.0937,-0.0312 0.125,-0.0312 0.125,-0.0625 0.0937,-0.0937 0.125,-0.125 0.125,-0.15625 0.0937,-0.15625 0.0937,-0.1875 0.0937,-0.1875 0.0625,-0.21875 0.0625,-0.21875 0.0625,-0.25 0.0937,-0.5 0.0625,-0.5625 0.0625,-0.5625 0.0312,-0.59375 0.0312,-1.15625 0.0312,-1.15625 0,-0.53125 0.0312,-0.5 0.0625,-0.4375 0.0312,-0.40625 0.21875,-0.96875 0.25,-1.21875 0.28125,-1.4375 0.3125,-1.53125 0.15625,-0.71875 0.1875,-0.71875 0.1875,-0.6875 0.21875,-0.625 0.21875,-0.5625 0.21875,-0.5 0.0937,-0.21875 0.125,-0.1875 0.0937,-0.15625 0.125,-0.125 0.25,-0.28125 0.25,-0.21875 0.125,-0.0937 0.15625,-0.0937 0.125,-0.0937 0.15625,-0.0625 0.15625,-0.0312 0.125,-0.0312 0.125,0 0.1875,0.0312 0.125,0.0312 0.1875,0.0937 0.15625,0.125 0.15625,0.15625 0.40625,0.40625 0.375,0.375 0.375,0.4375 0.375,0.46875 0.34375,0.46875 0.34375,0.46875 0.34375,0.5 0.3125,0.5 0.625,1.03125 0.5625,1.03125 0.59375,1.0625 0.53125,1.09375 0.15625,0.21875 0.125,0.21875 0.1875,0.21875 0.1875,0.21875 0.375,0.375 0.4375,0.40625 0.21875,0.1875 0.1875,0.21875 0.1875,0.21875 0.15625,0.1875 0.15625,0.21875 0.125,0.25 0.125,0.21875 0.0625,0.28125 0.125,0.4375 0.0937,0.53125 0.0937,0.53125 0.0937,0.625 0.21875,1.28125 0.21875,1.3125 0.15625,0.625 0.125,0.59375 0.15625,0.59375 0.1875,0.53125 0.0937,0.25 0.0937,0.21875 0.125,0.1875 0.125,0.21875 0.125,0.15625 0.125,0.15625 0.125,0.125 0.125,0.0937 0.15625,0.0625 0.0937,0.0312 0.125,0.0625 0.0937,0 0.25,0.0312 0.25,0 0.28125,0 0.28125,0 0.3125,0 0.3125,0.0625 0.1875,0.0312 0.21875,0.0312 0.3125,0.0937 0.3125,0.0625 0.3125,0.0625 0.34375,0.0312 0.1875,0 0.15625,0 0.15625,-0.0625 0.15625,-0.0312 0.0937,-0.0312 0.0937,-0.0625 0.0937,-0.0625 0.0625,-0.0625 0.1875,-0.21875 0.15625,-0.21875 0.15625,-0.3125 0.125,-0.3125 0.125,-0.3125 0.15625,-0.375 0.1875,-0.6875 0.1875,-0.71875 0.15625,-0.625 0.0937,-0.46875 0.0625,-0.375 0.0625,-0.34375 0.0625,-0.34375 0.0312,-0.34375 0.0312,-0.6875 0,-0.6875 0,-0.65625 -0.0625,-0.65625 -0.0625,-0.65625 -0.0625,-0.65625 -0.125,-1.3125 -0.0937,-1.28125 -0.0312,-0.625 0.0312,-0.625 0.0312,-0.65625 0.0937,-0.65625 0.0312,-0.0937 0,-0.15625 0,-0.1875 0.0312,-0.21875 0.0312,-0.1875 0,-0.21875 0,-0.15625 0.0312,-0.0937 0.0312,-0.1875 0.0312,-0.25 0,-0.1875 0,-0.25 -0.0312,-0.4375 -0.0625,-0.46875 -0.0625,-0.46875 0,-0.46875 -0.0312,-0.21875 0.0312,-0.21875 0,-0.21875 0.0312,-0.21875 0.0937,-0.53125 0.0625,-0.53125 0.0625,-0.5625 0.0625,-0.59375 0.0625,-1.3125 0,-1.375 0.0312,-1.40625 0.0312,-1.40625 0.0312,-0.718748 0.0312,-0.6875 0.0625,-0.65625 0.0937,-0.6875 0.0312,-0.40625 0.0312,-0.40625 0,-0.375 0,-0.40625 -0.0312,-0.71875 -0.0625,-0.75 -0.0312,-0.6875 -0.0312,-0.71875 0.0312,-0.375 0.0312,-0.375 0.0312,-0.375 0.0937,-0.40625 0.0625,-0.3125 0.0312,-0.375 0.0312,-0.375 0,-0.34375 0,-0.375 0,-0.40625 -0.0312,-0.375 -0.0312,-0.375 -0.0625,-0.375 -0.0625,-0.375 -0.0625,-0.375 -0.0937,-0.375 -0.0937,-0.375 -0.0937,-0.34375 -0.125,-0.34375 -0.125,-0.3125 -0.0625,-0.15625 -0.0937,-0.125 -0.125,-0.125 -0.125,-0.125 -0.125,-0.0625 -0.15625,-0.125 -0.15625,-0.0625 -0.15625,-0.0625 -0.1875,-0.0625 -0.1875,-0.0625 -0.1875,-0.03125 -0.1875,-0.03125 -0.40625,0 -0.40625,0 -0.40625,0.0625 -0.40625,0.09375 -0.1875,0.03125 -0.15625,0.09375 -0.1875,0.09375 -0.1875,0.0625 -0.125,0.125 -0.15625,0.09375 -0.125,0.09375 -0.125,0.15625 -0.125,0.125 -0.0625,0.15625 -0.0625,0.125 -0.0625,0.1875 -0.0312,0.21875 -0.0312,0.21875 0,0.1875 0.0312,0.21875 0.0625,0.375 0.0937,0.375 0.0937,0.34375 0.0625,0.40625 0.0312,0.21875 0,0.1875 -0.0312,0.25 -0.0312,0.21875 -0.0937,0.5 -0.0937,0.625 -0.0625,0.75 -0.0625,0.90625 -0.0625,0.9375 -0.0625,1.09375 -0.0625,1.125 -0.0625,1.15625 -0.125,2.125 -0.125,2.124998 -0.0625,1.03125 -0.125,0.9375 -0.125,0.9375 -0.125,0.875 -0.0625,0.40625 -0.0937,0.40625 -0.0937,0.34375 -0.0937,0.34375 -0.0937,0.3125 -0.125,0.28125 -0.125,0.25 -0.15625,0.21875 -0.125,0.1875 -0.125,0.1875 -0.1875,0.125 -0.15625,0.0625 -0.15625,0.0937 -0.1875,0 -0.1875,-0.0312 -0.21875,-0.0625 -0.1875,-0.125 -0.1875,-0.0937 -0.21875,-0.15625 -0.1875,-0.125 -0.15625,-0.15625 -0.1875,-0.1875 -0.1875,-0.1875 -0.15625,-0.1875 -0.3125,-0.40625 -0.28125,-0.4375 -0.21875,-0.4375 -0.21875,-0.4375 -0.0937,-0.15625 -0.0625,-0.15625 -0.125,-0.15625 -0.0937,-0.15625 -0.25,-0.28125 -0.25,-0.28125 -0.28125,-0.28125 -0.25,-0.28125 -0.25,-0.25 -0.1875,-0.28125 -0.34375,-0.46875 -0.3125,-0.46875 -0.375,-0.46875 -0.3125,-0.40625 -0.71875,-0.875 -0.6875,-0.843748 -0.3125,-0.4375 -0.3125,-0.46875 -0.28125,-0.5 -0.28125,-0.5 -0.28125,-0.53125 -0.21875,-0.59375 -0.21875,-0.59375 -0.1875,-0.6875 -0.0937,-0.4375 -0.0625,-0.40625 -0.0625,-0.4375 -0.0312,-0.40625 0,-0.40625 -0.0312,-0.40625 0.0312,-0.40625 0,-0.40625 0.125,-1.46875 0.0625,-1.375 0,-0.34375 0,-0.28125 -0.0625,-0.3125 -0.0312,-0.28125 -0.0625,-0.28125 -0.0937,-0.28125 -0.0937,-0.25 -0.15625,-0.25 -0.125,-0.21875 -0.21875,-0.21875 -0.21875,-0.21875 -0.28125,-0.1875 -0.28125,-0.1875 -0.34375,-0.15625 -0.34375,-0.15625 -0.4375,-0.125 -0.25,-0.0625 -0.375,-0.0625 -0.375,-0.09375 -0.46875,-0.0625 -0.4375,-0.03125 -0.46875,0 -0.21875,0 -0.21875,0 -0.21875,0.03125 -0.1875,0.03125"
         style="font-size:64px;font-variant:normal;font-stretch:normal;font-family:'GreenpeaceFont (deutsch)';-inkscape-font-specification:'GreenpeaceFont (deutsch)';fill:#ffffff;fill-opacity:1"
         id="path3027"
         inkscape:connector-curvature="0" />
      <path
         d="m 361.00893,91.357712 0.34375,-0.09375 0.3125,-0.03125 0.34375,-0.03125 0.3125,-0.0625 0.65625,0 0.65625,-0.03125 0.6875,0.03125 0.6875,0 0.6875,0.03125 0.71875,0 0.75,0 0.75,0.03125 0.375,0 0.34375,0.0625 0.375,0.03125 0.375,0.0625 0.34375,0.09375 0.375,0.09375 0.3125,0.09375 0.3125,0.15625 0.3125,0.15625 0.3125,0.21875 0.28125,0.1875 0.25,0.25 0.25,0.3125 0.15625,0.28125 0.0937,0.3125 0.0625,0.28125 0,0.34375 -0.0625,0.3125 -0.125,0.3125 -0.125,0.3125 -0.1875,0.3125 -0.28125,0.3125 -0.25,0.3125 -0.3125,0.3125 -0.34375,0.28125 -0.375,0.3125 -0.40625,0.28125 -0.40625,0.28125 -0.4375,0.28125 -0.4375,0.25 -0.46875,0.25 -0.46875,0.25 -0.46875,0.25 -0.5,0.1875 -0.46875,0.21875 -0.5,0.1875 -0.4375,0.15625 -0.46875,0.15625 -0.46875,0.15625 -0.40625,0.125 -0.4375,0.09375 -0.375,0.0625 -0.375,0.0625 -0.3125,0.0312 -0.28125,0.0312 -0.21875,-0.0312 -0.1875,-0.0312 -0.15625,-0.0625 -0.125,-0.0625 -0.0937,-0.0625 -0.0625,-0.125 -0.0312,-0.09375 -0.0625,-0.125 0,-0.15625 0,-0.15625 0,-0.125 0.0625,-0.375 0.0312,-0.34375 -0.0312,-0.125 -0.0312,-0.25 -0.0625,-0.34375 -0.0625,-0.4375 -0.0937,-0.46875 -0.125,-0.5 -0.0937,-0.53125 -0.125,-0.4375 -0.0625,-0.25 -0.0312,-0.1875 -0.0625,-0.21875 0,-0.1875 -0.0312,-0.34375 0.0312,-0.3125 0,-0.21875 0.0625,-0.15625 0.0312,-0.09375 0,-0.0625 0,-0.25 -0.0625,-0.28125 -0.0625,-0.3125 -0.0312,-0.3125 -0.0312,-0.15625 0,-0.125 0.0312,-0.15625 0.0312,-0.09375 0.0625,-0.09375 0.0937,-0.125 0.125,-0.0625 0.125,-0.03125 m -0.15625,-7.59375 -0.4375,0.0625 -0.46875,0.0625 -0.4375,0 -0.4375,0.03125 -0.875,0.03125 -0.875,0 -0.875,0.03125 -0.875,0.0625 -0.46875,0.03125 -0.4375,0.09375 -0.46875,0.0625 -0.46875,0.09375 -1.15625,0.28125 -1.1875,0.3125 -1.15625,0.3125 -1.15625,0.3125 -0.5625,0.1875 -0.59375,0.1875 -0.53125,0.21875 -0.53125,0.25 -0.5,0.21875 -0.53125,0.25 -0.46875,0.28125 -0.46875,0.28125 -0.0937,0.09375 -0.0937,0.125 -0.125,0.125 -0.0625,0.1875 -0.125,0.375 -0.125,0.375 -0.0625,0.375 -0.0312,0.3125 -0.0312,0.21875 0,0.0625 0,0.65625 0.0312,0.5625 0.0937,0.5 0.0937,0.4375 0.15625,0.375 0.1875,0.28125 0.25,0.25 0.25,0.1875 0.25,0.15625 0.3125,0.09375 0.34375,0.0625 0.375,0 0.375,0 0.375,-0.03125 0.40625,-0.0625 0.4375,-0.09375 1.71875,-0.46875 1.75,-0.5 0.40625,-0.09375 0.40625,-0.0625 0.40625,-0.03125 0.34375,-0.03125 0.34375,0 0.34375,0.0625 0.3125,0.09375 0.28125,0.125 0.0625,0.0625 0.0937,0.0625 0.0937,0.09375 0.0937,0.09375 0.125,0.09375 0.0625,0.125 0.0625,0.0625 0.0625,0.09375 0.0312,0.03125 0.0312,0.09375 0.0312,0.09375 0.0312,0.0625 0.0312,0.09375 0.0312,0.09375 0,0.0625 0.0312,0.0625 0.0937,0.3125 0.0625,0.40625 0.0625,0.40625 0.0625,0.4375 0.0312,0.46875 0.0312,0.5 0,0.5 -0.0312,0.5 -0.0312,0.5 0,0.46875 -0.0625,0.5 -0.0625,0.4375 -0.0625,0.40625 -0.0937,0.375 -0.0937,0.34375 -0.0937,0.249998 -0.0625,0.125 -0.0312,0.0937 -0.0625,0.0625 -0.0625,0.0312 -0.125,0.0312 -0.125,0.0312 -0.0625,0 -0.0625,0 -0.0312,0 -0.0625,0.0312 -0.0312,0.0625 -0.0625,0.0937 -0.0312,0.0937 -0.0312,0.15625 -0.40625,0.0625 -0.5,0.0625 -0.46875,0.125 -0.5,0.0937 -0.5,0.15625 -0.4375,0.15625 -0.21875,0.0937 -0.1875,0.0625 -0.15625,0.125 -0.125,0.0937 -0.125,0.125 -0.0937,0.125 -0.0937,0.15625 -0.125,0.1875 -0.1875,0.4375 -0.1875,0.46875 -0.15625,0.5 -0.125,0.46875 -0.0625,0.40625 -0.0625,0.34375 -0.0312,0.375 -0.0312,0.3125 0,0.3125 0.0312,0.28125 0.0312,0.3125 0.0625,0.25 0.0625,0.25 0.0625,0.21875 0.0625,0.21875 0.125,0.21875 0.0937,0.1875 0.125,0.1875 0.125,0.15625 0.125,0.15625 0.125,0.15625 0.125,0.125 0.28125,0.21875 0.28125,0.21875 0.28125,0.15625 0.28125,0.15625 0.4375,0.21875 0.3125,0.15625 0.0937,0.0625 0.0625,0.0312 0.125,0 0.0625,-0.0312 0.1875,-0.0625 0.1875,-0.125 0.125,-0.0312 0.125,-0.0625 0.15625,-0.0625 0.1875,-0.0312 0.1875,0 0.1875,0 0.25,0.0312 0.25,0.0625 0,0.40625 0,0.375 0,0.34375 0,0.3125 0,0.28125 0,0.25 0.0312,0.28125 0.0312,0.3125 0.0625,0.46875 0,0.5625 -0.0312,0.59375 -0.0625,0.65625 -0.0937,0.65625 -0.0625,0.625 -0.125,0.625 -0.0937,0.59375 -0.15625,0.875 -0.21875,1.09375 -0.1875,1.25 -0.15625,1.34375 -0.0625,0.65625 -0.0312,0.65625 -0.0312,0.625 0,0.59375 0.0312,0.53125 0.0625,0.46875 0.0312,0.25 0.0625,0.21875 0.0312,0.1875 0.0937,0.125 0.0625,0.125 0.0625,0.125 0.125,0.0625 0.0625,0.0625 0.25,0.0937 0.28125,0.0937 0.34375,0.0625 0.375,0.125 0.1875,0.125 0.21875,0.0937 0.21875,0.125 0.25,0.15625 0.21875,0.125 0.25,0.15625 0.3125,0.15625 0.3125,0.125 0.15625,0.0312 0.1875,0.0625 0.1875,0 0.1875,0.0312 0.21875,0 0.21875,-0.0312 0.1875,-0.0312 0.21875,-0.0625 0.15625,-0.0937 0.15625,-0.0937 0.125,-0.0937 0.0937,-0.15625 0.125,-0.1875 0.0625,-0.1875 0.0625,-0.1875 0.0937,-0.1875 0.0937,-0.4375 0.0937,-0.46875 0.0937,-0.4375 0.0937,-0.4375 0.0312,-0.375 0.0625,-0.375 0.0312,-0.375 0,-0.4375 0,-0.875 -0.0625,-0.90625 -0.0312,-0.9375 -0.0312,-0.9375 0,-0.46875 0.0312,-0.4375 0,-0.46875 0.0937,-0.40625 0.125,-1.0625 0.15625,-1.3125 0.15625,-1.40625 0.15625,-1.4375 0.15625,-1.34375 0.125,-1.15625 0.0937,-0.875 0.0625,-0.46875 0.0937,-0.0937 0.125,-0.0937 0.15625,-0.0625 0.21875,-0.0625 0.46875,-0.15625 0.59375,-0.15625 0.65625,-0.125 0.65625,-0.1875 0.6875,-0.15625 0.625,-0.15625 0.21875,-0.0625 0.21875,-0.0937 0.1875,-0.125 0.25,-0.125 0.21875,-0.125 0.1875,-0.125 0.1875,-0.125 0.1875,-0.0625 0.3125,-0.0937 0.34375,-0.0937 0.3125,-0.0625 0.3125,-0.0625 0.3125,-0.0625 0.3125,-0.0625 0.28125,-0.0937 0.28125,-0.0937 0.40625,-0.21875 0.375,-0.21875 0.375,-0.25 0.40625,-0.28125 0.375,-0.25 0.375,-0.28125 0.3125,-0.28125 0.34375,-0.25 0.9375,-0.71875 0.875,-0.59375 0.8125,-0.5625 0.78125,-0.5 0.6875,-0.4375 0.5625,-0.375 0.21875,-0.15625 0.1875,-0.15625 0.15625,-0.125 0.0937,-0.125 0.1875,-0.28125 0.125,-0.281248 0.125,-0.28125 0.125,-0.3125 0.125,-0.3125 0.125,-0.3125 0.1875,-0.3125 0.1875,-0.3125 0.1875,-0.25 0.1875,-0.3125 0.15625,-0.28125 0.0937,-0.3125 0.0937,-0.3125 0.0625,-0.3125 0.0312,-0.3125 0.0312,-0.34375 0,-0.375 -0.0312,-0.34375 -0.0312,-0.34375 -0.0625,-0.375 -0.0625,-0.375 -0.0937,-0.34375 -0.0937,-0.375 -0.125,-0.375 -0.15625,-0.375 -0.125,-0.375 -0.15625,-0.375 -0.15625,-0.34375 -0.375,-0.71875 -0.375,-0.71875 -0.375,-0.65625 -0.4375,-0.625 -0.40625,-0.59375 -0.4375,-0.53125 -0.125,-0.15625 -0.0937,-0.15625 -0.125,-0.15625 -0.0937,-0.15625 -0.15625,-0.15625 -0.125,-0.125 -0.1875,-0.0625 -0.15625,-0.09375 -0.25,-0.0625 -0.21875,-0.0625 -0.1875,0 -0.1875,-0.03125 -0.15625,-0.03125 -0.15625,-0.0625 -0.1875,-0.03125 -0.21875,-0.125 -0.125,-0.09375 -0.1875,-0.15625 -0.1875,-0.15625 -0.1875,-0.15625 -0.1875,-0.15625 -0.1875,-0.15625 -0.1875,-0.09375 -0.1875,-0.0625 -0.28125,-0.09375 -0.375,-0.03125 -0.375,-0.0625 -0.375,-0.03125 -0.4375,-0.03125 -0.375,-0.03125 -0.34375,-0.03125 -0.3125,-0.0625 -0.75,-0.15625 -1.03125,-0.125 -1.1875,-0.15625 -1.28125,-0.15625 -1.28125,-0.125 -1.25,-0.0625 -0.5625,0 -0.53125,0 -0.4375,0 -0.40625,0.0625"
         style="font-size:64px;font-variant:normal;font-stretch:normal;font-family:'GreenpeaceFont (deutsch)';-inkscape-font-specification:'GreenpeaceFont (deutsch)';fill:#ffffff;fill-opacity:1"
         id="path3029"
         inkscape:connector-curvature="0" />
      <path
         d="m 407.04018,86.545212 -1.0625,0.21875 -1,0.21875 -1.03125,0.1875 -1,0.21875 -1.03125,0.21875 -1.03125,0.28125 -0.53125,0.15625 -0.53125,0.1875 -0.5,0.15625 -0.53125,0.21875 -0.34375,0.15625 -0.375,0.125 -0.34375,0.125 -0.375,0.09375 -0.75,0.1875 -0.75,0.1875 -0.75,0.125 -0.75,0.15625 -0.75,0.15625 -0.75,0.15625 -0.5,0.125 -0.53125,0.125 -0.5,0.0625 -0.5,0.0625 -1,0.125 -0.96875,0.125 -0.46875,0.0625 -0.46875,0.0625 -0.46875,0.09375 -0.4375,0.09375 -0.40625,0.125 -0.4375,0.15625 -0.40625,0.1875 -0.40625,0.21875 -0.0625,0.0625 -0.0937,0.0625 -0.0937,0.125 -0.0625,0.125 -0.1875,0.3125 -0.15625,0.375 -0.34375,0.84375 -0.3125,1 -0.34375,1 -0.3125,0.9375 -0.15625,0.4375 -0.15625,0.375 -0.1875,0.28125 -0.15625,0.25 -0.5,0.625 -0.4375,0.59375 -0.40625,0.53125 -0.3125,0.531248 -0.3125,0.46875 -0.21875,0.4375 -0.21875,0.40625 -0.15625,0.375 -0.25,0.65625 -0.15625,0.53125 -0.15625,0.40625 -0.125,0.34375 -0.125,0.125 -0.1875,0.125 -0.15625,0.125 -0.125,0.15625 -0.21875,0.21875 -0.21875,0.3125 -0.21875,0.375 -0.3125,0.53125 -0.3125,0.625 -0.3125,0.75 -0.375,0.9375 -0.46875,1.0625 -0.4375,1.25 -0.5,1.4375 -0.15625,0.5625 -0.15625,0.53125 -0.125,0.5625 -0.125,0.5625 -0.0625,0.59375 -0.0937,0.5625 -0.0625,0.59375 0,0.59375 0,0.59375 0.0312,0.59375 0.0625,0.59375 0.125,0.59375 0.0937,0.5625 0.15625,0.59375 0.1875,0.5625 0.21875,0.5625 0.25,0.59375 0.28125,0.53125 0.3125,0.53125 0.375,0.5 0.40625,0.5 0.4375,0.46875 0.46875,0.46875 0.53125,0.4375 0.5625,0.40625 0.59375,0.375 0.65625,0.40625 0.71875,0.3125 0.75,0.3125 0.78125,0.28125 0.84375,0.21875 0.90625,0.21875 0.625,0.125 0.625,0.125 0.6875,0.0625 0.71875,0.0937 0.71875,0.0312 0.75,0.0312 0.75,0 0.78125,0 0.71875,-0.0312 0.71875,-0.0937 0.71875,-0.0937 0.6875,-0.15625 0.3125,-0.0625 0.34375,-0.125 0.28125,-0.0625 0.3125,-0.125 0.28125,-0.125 0.28125,-0.125 0.25,-0.125 0.21875,-0.15625 0.375,-0.25 0.375,-0.28125 0.375,-0.25 0.34375,-0.3125 0.3125,-0.34375 0.3125,-0.3125 0.25,-0.375 0.25,-0.375 0.0937,-0.1875 0.0937,-0.21875 0.0625,-0.21875 0.0625,-0.21875 0.0625,-0.21875 0.0625,-0.25 0.0312,-0.21875 0.0312,-0.25 0,-0.28125 0,-0.28125 -0.0312,-0.28125 -0.0312,-0.28125 -0.0625,-0.3125 -0.0625,-0.3125 -0.0937,-0.3125 -0.0937,-0.34375 -0.0937,-0.28125 -0.0625,-0.28125 -0.0625,-0.28125 -0.0625,-0.28125 -0.0937,-0.25 -0.0937,-0.21875 -0.0625,-0.0937 -0.0937,-0.0937 -0.0625,-0.0625 -0.125,-0.0625 -0.125,-0.0937 -0.1875,-0.0625 -0.15625,-0.0312 -0.15625,-0.0312 -0.15625,-0.0312 -0.1875,0 -0.1875,0 -0.15625,0 -0.34375,0.0625 -0.375,0.0625 -0.34375,0.125 -0.375,0.125 -0.34375,0.125 -0.34375,0.15625 -0.3125,0.15625 -0.3125,0.1875 -0.59375,0.3125 -0.46875,0.25 -0.4375,0.1875 -0.46875,0.21875 -0.46875,0.15625 -0.46875,0.15625 -0.5,0.125 -0.46875,0.125 -0.53125,0.0625 -0.53125,0.0312 -0.53125,0.0312 -0.5625,-0.0625 -0.5625,-0.0625 -0.59375,-0.125 -0.625,-0.125 -0.625,-0.21875 -0.65625,-0.25 -0.6875,-0.3125 -0.46875,-0.25 -0.4375,-0.25 -0.40625,-0.25 -0.34375,-0.25 -0.15625,-0.15625 -0.15625,-0.15625 -0.125,-0.125 -0.125,-0.15625 -0.125,-0.15625 -0.0625,-0.125 -0.0937,-0.1875 -0.0625,-0.15625 -0.0625,-0.125 -0.0312,-0.1875 -0.0312,-0.15625 0,-0.15625 0.0312,-0.15625 0.0625,-0.15625 0.0312,-0.1875 0.0937,-0.15625 0.0625,-0.15625 0.125,-0.15625 0.125,-0.1875 0.1875,-0.15625 0.15625,-0.15625 0.21875,-0.1875 0.21875,-0.15625 0.25,-0.15625 0.125,-0.0937 0.15625,-0.125 0.15625,-0.125 0.1875,-0.15625 0.1875,-0.15625 0.1875,-0.0937 0.15625,-0.0937 0.15625,-0.0625 0.28125,-0.0937 0.28125,-0.0625 0.3125,-0.0312 0.3125,-0.0312 0.625,-0.0312 0.65625,0 0.65625,0 0.6875,-0.0312 0.3125,-0.0312 0.34375,-0.0312 0.3125,-0.0312 0.3125,-0.0625 0.46875,-0.125 0.375,-0.125 0.34375,-0.125 0.375,-0.0937 0.375,-0.0937 0.46875,-0.0312 0.25,-0.0312 0.28125,0 0.34375,0.0312 0.34375,0.0312 0.25,0 0.28125,0 0.25,0 0.28125,-0.0312 0.5625,-0.0937 0.59375,-0.125 0.625,-0.15625 0.625,-0.125 0.3125,-0.0625 0.375,-0.0625 0.34375,-0.0625 0.375,-0.0312 0.8125,-0.0625 0.625,-0.0625 0.46875,-0.0625 0.375,-0.0937 0.25,-0.0625 0.1875,-0.0937 0.15625,-0.0937 0.15625,-0.0625 0.25,-0.125 0.1875,-0.0625 0.21875,-0.0625 0.125,0 0.3125,0 0.25,0.0625 0.15625,0 0.15625,0.0312 0.1875,0 0.1875,-0.0312 0.21875,-0.0312 0.28125,-0.0937 0.3125,-0.125 0.34375,-0.15625 0.0937,-0.0625 0.0937,-0.0625 0.0625,-0.0625 0.0625,-0.0937 0.0937,-0.21875 0.0937,-0.21875 0.0625,-0.28125 0.0625,-0.28125 0.0312,-0.3125 0,-0.3125 0,-0.3125 -0.0312,-0.3125 -0.0312,-0.3125 -0.0312,-0.3125 -0.0625,-0.28125 -0.0625,-0.25 -0.0625,-0.21875 -0.0937,-0.1875 -0.0937,-0.15625 -0.0625,-0.1875 -0.0625,-0.21875 -0.0625,-0.21875 -0.125,-0.5 -0.125,-0.5 -0.0625,-0.25 -0.0625,-0.21875 -0.0937,-0.21875 -0.0937,-0.1875 -0.125,-0.21875 -0.125,-0.125 -0.0937,-0.0312 -0.0625,-0.0937 -0.0625,-0.0312 -0.0937,-0.0312 -0.1875,-0.0312 -0.15625,-0.0312 -0.125,0 -0.125,0 -0.125,0.0625 -0.125,0.0312 -0.0937,0.0625 -0.0937,0.0625 -0.1875,0.15625 -0.125,0.125 -0.15625,0.15625 -0.15625,0.125 -0.25,0.125 -0.28125,0.15625 -0.3125,0.15625 -0.3125,0.125 -0.65625,0.21875 -0.71875,0.21875 -0.78125,0.1875 -0.84375,0.21875 -0.875,0.125 -0.9375,0.15625 -1,0.15625 -0.9375,0.15625 -0.9375,0.15625 -0.9375,0.125 -0.46875,0.0312 -0.46875,0.0312 -0.5,0 -0.46875,-0.0312 -0.53125,-0.0312 -0.5625,-0.0625 -0.53125,-0.0937 -0.5625,-0.125 -0.1875,-0.0312 -0.3125,-0.125 -0.3125,-0.1875 -0.15625,-0.0625 -0.15625,-0.125 -0.125,-0.0937 -0.0937,-0.125 -0.0937,-0.125 -0.0937,-0.125 -0.0625,-0.125 -0.0312,-0.125 -0.0312,-0.15625 0.0312,-0.15625 0.0312,-0.125 0.0937,-0.1875 0.28125,-0.5 0.3125,-0.53125 0.34375,-0.5 0.40625,-0.53125 0.375,-0.53125 0.40625,-0.5 0.40625,-0.46875 0.375,-0.4375 0.25,-0.21875 0.34375,-0.249998 0.4375,-0.1875 0.5,-0.25 0.59375,-0.1875 0.6875,-0.25 0.71875,-0.1875 0.78125,-0.25 0.84375,-0.1875 0.875,-0.25 0.9375,-0.21875 0.9375,-0.1875 1.96875,-0.4375 2,-0.375 3.9375,-0.75 3.4375,-0.65625 1.40625,-0.3125 1.125,-0.25 0.4375,-0.125 0.34375,-0.125 0.25,-0.09375 0.125,-0.09375 0.125,-0.125 0.0937,-0.125 0.0937,-0.1875 0.0312,-0.21875 0.0312,-0.1875 0,-0.25 0,-0.25 0,-0.25 -0.0625,-0.5 -0.0937,-0.46875 -0.0937,-0.40625 -0.0625,-0.3125 -0.0625,-0.25 -0.0625,-0.28125 -0.0625,-0.375 -0.0625,-0.34375 -0.0937,-0.375 -0.0625,-0.3125 -0.0312,-0.25 -0.0625,-0.1875 0,-0.0625 -0.0625,-0.09375 -0.0625,-0.0625 -0.0625,-0.09375 -0.1875,-0.15625 -0.21875,-0.15625 -0.1875,-0.15625 -0.125,-0.125 -0.0625,-0.0625 -0.0625,-0.0625 -0.0312,-0.0625 -0.0312,-0.0625 0,-0.375 -0.0312,-0.34375 -0.0312,-0.15625 -0.0625,-0.125 -0.0937,-0.125 -0.0937,-0.09375 -0.125,-0.0625 -0.1875,-0.0625 -0.1875,-0.0625 -0.21875,0 -0.3125,0.03125 -0.3125,0.0625 -0.375,0.0625 -0.40625,0.09375"
         style="font-size:64px;font-variant:normal;font-stretch:normal;font-family:'GreenpeaceFont (deutsch)';-inkscape-font-specification:'GreenpeaceFont (deutsch)';fill:#ffffff;fill-opacity:1"
         id="path3031"
         inkscape:connector-curvature="0" />
      <path
         d="m 423.41518,91.982712 0.1875,-0.03125 0.15625,0 0.15625,0 0.1875,0 0.15625,0.09375 0.15625,0.03125 0.125,0.09375 0.15625,0.125 0.125,0.09375 0.125,0.15625 0.125,0.125 0.125,0.15625 0.21875,0.375 0.25,0.40625 0.0312,0.09375 0.0312,0.125 0.0312,0.1875 0.0312,0.1875 0.0625,0.4375 0.0312,0.5625 0.0625,1.34375 0,1.46875 -0.0312,1.5625 0,1.468748 -0.0312,1.21875 0,0.9375 -0.875,0.0937 -1,0.0625 -1.03125,0.0625 -1.0625,0.0312 -1.125,0.0312 -1.125,0 -1.0625,0 -1.0625,-0.0312 0,-0.125 0.0312,-0.1875 0.0312,-0.1875 0.0937,-0.21875 0.1875,-0.5 0.25,-0.5625 0.34375,-0.6875 0.375,-0.71875 0.40625,-0.812498 0.40625,-0.8125 0.21875,-0.46875 0.1875,-0.5 0.1875,-0.46875 0.15625,-0.46875 0.15625,-0.4375 0.15625,-0.46875 0.1875,-0.46875 0.21875,-0.4375 0.3125,-0.5625 0.34375,-0.53125 0.3125,-0.46875 0.3125,-0.4375 0.3125,-0.34375 0.28125,-0.28125 0.0937,-0.125 0.125,-0.09375 0.0937,-0.03125 0.0937,-0.0625 m -0.1875,-9.84375 -0.1875,0.0625 -0.1875,0.125 -0.1875,0.125 -0.1875,0.1875 -0.4375,0.40625 -0.4375,0.46875 -0.40625,0.46875 -0.375,0.5 -0.3125,0.4375 -0.25,0.375 -0.1875,0.3125 -0.25,0.25 -0.25,0.28125 -0.28125,0.28125 -0.28125,0.25 -0.28125,0.28125 -0.0937,0.125 -0.125,0.15625 -0.0937,0.125 -0.0625,0.15625 -0.375,0.625 -0.34375,0.625 -0.375,0.625 -0.375,0.59375 -0.34375,0.625 -0.34375,0.59375 -0.375,0.625 -0.34375,0.59375 -0.34375,0.6875 -0.34375,0.6875 -0.3125,0.71875 -0.3125,0.71875 -0.59375,1.4375 -0.5625,1.40625 -0.5625,1.4375 -0.59375,1.406248 -0.34375,0.6875 -0.34375,0.71875 -0.375,0.6875 -0.375,0.65625 -0.15625,0.21875 -0.1875,0.1875 -0.1875,0.1875 -0.1875,0.15625 -0.40625,0.3125 -0.4375,0.25 -0.21875,0.15625 -0.1875,0.15625 -0.21875,0.1875 -0.1875,0.1875 -0.15625,0.21875 -0.15625,0.21875 -0.0937,0.25 -0.0937,0.28125 -0.1875,0.84375 -0.125,0.84375 -0.125,0.84375 -0.125,0.84375 -0.125,0.8125 -0.1875,0.8125 -0.0937,0.375 -0.0937,0.375 -0.125,0.40625 -0.15625,0.375 -0.25,0.5 -0.21875,0.5 -0.25,0.4375 -0.21875,0.40625 -0.53125,0.84375 -0.53125,0.8125 -0.25,0.375 -0.25,0.4375 -0.21875,0.46875 -0.21875,0.5 -0.21875,0.5 -0.1875,0.5625 -0.15625,0.625 -0.15625,0.6875 -0.0625,0.28125 -0.0312,0.25 -0.0312,0.28125 -0.0312,0.25 0,0.25 0.0312,0.25 0.0312,0.21875 0,0.21875 0.0312,0.1875 0.0937,0.21875 0.0312,0.1875 0.0937,0.1875 0.0625,0.15625 0.0937,0.15625 0.0937,0.1875 0.125,0.125 0.21875,0.28125 0.25,0.25 0.28125,0.21875 0.3125,0.1875 0.3125,0.1875 0.34375,0.125 0.3125,0.125 0.34375,0.125 0.125,0.0625 0.15625,0.0312 0.15625,0 0.125,0 0.125,0 0.125,-0.0312 0.125,-0.0625 0.125,-0.0312 0.21875,-0.125 0.21875,-0.15625 0.1875,-0.1875 0.15625,-0.1875 0.1875,-0.1875 0.125,-0.25 0.125,-0.21875 0.125,-0.21875 0.1875,-0.4375 0.1875,-0.375 0.375,-0.96875 0.46875,-1.25 0.25,-0.6875 0.28125,-0.71875 0.3125,-0.71875 0.3125,-0.6875 0.3125,-0.71875 0.34375,-0.6875 0.34375,-0.59375 0.375,-0.5625 0.15625,-0.25 0.1875,-0.25 0.1875,-0.21875 0.1875,-0.1875 0.1875,-0.15625 0.1875,-0.125 0.1875,-0.125 0.1875,-0.0625 0.4375,-0.15625 0.40625,-0.125 0.40625,-0.0937 0.40625,-0.0937 0.75,-0.125 0.75,-0.0937 0.75,-0.125 0.8125,-0.15625 0.4375,-0.125 0.4375,-0.125 0.5,-0.125 0.5,-0.1875 0.15625,-0.0625 0.25,-0.0312 0.3125,-0.0312 0.3125,-0.0312 0.8125,-0.0312 0.875,0 0.96875,-0.0625 0.96875,0 0.4375,-0.0312 0.46875,-0.0312 0.4375,-0.0625 0.40625,-0.0625 -0.0312,0.78125 -0.0312,1.1875 -0.0625,1.40625 -0.0312,1.59375 -0.0312,1.59375 -0.0625,1.5 0,1.28125 0,0.90625 0,0.65625 0.0625,0.65625 0.0625,0.625 0.0625,0.625 0.0937,0.59375 0.125,0.5625 0.15625,0.5625 0.15625,0.53125 0.15625,0.4375 0.15625,0.40625 0.21875,0.40625 0.21875,0.34375 0.0937,0.15625 0.0937,0.125 0.125,0.125 0.125,0.125 0.125,0.0937 0.0937,0.0937 0.125,0.0625 0.125,0.0625 0.21875,0.0625 0.1875,0.0312 0.1875,0.0312 0.1875,0.0312 0.34375,0.0312 0.375,0 0.375,-0.0312 0.34375,-0.0312 0.375,0 0.3125,0 0.0625,-0.0625 0.0312,-0.0937 0.0312,-0.0625 0,-0.0625 0.0312,-0.0937 0.0312,-0.0625 0.0312,-0.0625 0.0625,-0.0937 0.0312,0 0.0312,-0.0312 0.0312,0 0.0625,-0.0312 0.0312,-0.0312 0.0312,-0.0312 0.0312,-0.0312 0.0312,-0.0312 0.0625,-0.0937 0.0312,-0.0937 0.0312,-0.0625 0,-0.0937 0,-0.0937 0.0312,-0.0937 0.0312,-0.0937 0,-0.125 0.125,-0.40625 0.125,-0.375 0.0937,-0.46875 0.0625,-0.5 0.0625,-0.5 0.0625,-0.53125 0.0625,-0.53125 0,-0.53125 0.0312,-0.5625 0,-0.53125 -0.0312,-0.53125 0,-0.53125 -0.0625,-0.5 -0.0625,-0.53125 -0.0625,-0.4375 -0.0937,-0.46875 -0.125,-0.625 -0.0937,-0.625 -0.0937,-0.625 -0.0312,-0.625 -0.0312,-0.65625 0,-0.625 0,-0.625 0.0312,-0.65625 0.0937,-1.25 0.0625,-1.21875 0.0625,-1.1875 0,-1.125 0.34375,-0.125 0.3125,-0.125 0.25,-0.125 0.25,-0.15625 0.21875,-0.15625 0.1875,-0.125 0.15625,-0.15625 0.125,-0.1875 0.125,-0.1875 0.125,-0.21875 0.0937,-0.25 0.0625,-0.25 0.0625,-0.34375 0.0625,-0.28125 0.0625,-0.40625 0.0312,-0.40625 0.0312,-0.1875 0.0312,-0.28125 0.0312,-0.3125 0,-0.3125 0.0312,-0.28125 0.0312,-0.25 0,-0.1875 0,-0.0937 0,-0.0625 0,-0.0937 0,-0.125 0,-0.125 -0.0312,-0.125 0,-0.0937 0,-0.0625 0,-0.0312 0.0312,-0.0625 0,-0.125 0,-0.125 -0.0312,-0.15625 -0.0312,-0.15625 0,-0.125 0,-0.0625 -0.0312,-0.0937 -0.0625,-0.0937 -0.0625,-0.0937 -0.0937,-0.0625 -0.125,-0.0625 -0.0937,0 -0.125,-0.0312 -0.15625,0 -0.15625,0 -0.3125,0.0312 -0.3125,0.0312 -0.375,0.0312 -0.375,0.0312 0.0625,-0.625 0,-0.71875 0,-0.8125 -0.0312,-0.84375 -0.0625,-0.874998 -0.0625,-0.875 -0.125,-0.8125 -0.125,-0.75 -0.0625,-0.375 -0.0312,-0.34375 -0.0312,-0.34375 -0.0312,-0.3125 -0.0312,-0.59375 0,-0.59375 -0.0312,-0.53125 -0.0312,-0.59375 -0.0625,-0.28125 -0.0625,-0.3125 -0.0625,-0.28125 -0.125,-0.34375 -0.0312,-0.1875 -0.0312,-0.1875 0,-0.1875 -0.0312,-0.1875 -0.0312,-0.21875 -0.0625,-0.25 -0.125,-0.28125 -0.125,-0.28125 -0.0937,-0.21875 -0.0625,-0.1875 -0.0312,-0.21875 -0.0625,-0.1875 0,-0.21875 -0.0625,-0.21875 -0.0312,-0.1875 -0.0312,-0.1875 -0.0937,-0.1875 -0.0625,-0.15625 -0.0937,-0.15625 -0.0937,-0.1875 -0.21875,-0.34375 -0.25,-0.28125 -0.25,-0.3125 -0.25,-0.28125 -0.21875,-0.3125 -0.15625,-0.3125 -0.34375,-0.8125 -0.375,-0.90625 -0.21875,-0.4375 -0.21875,-0.40625 -0.125,-0.21875 -0.15625,-0.21875 -0.125,-0.1875 -0.125,-0.1875 -0.1875,-0.15625 -0.15625,-0.15625 -0.15625,-0.15625 -0.1875,-0.15625 -0.21875,-0.125 -0.21875,-0.09375 -0.21875,-0.09375 -0.25,-0.09375 -0.25,-0.03125 -0.25,-0.03125 -0.25,-0.03125 -0.3125,0.03125 -0.3125,0.03125 -0.34375,0.03125 -0.3125,0.125 -0.375,0.09375"
         style="font-size:64px;font-variant:normal;font-stretch:normal;font-family:'GreenpeaceFont (deutsch)';-inkscape-font-specification:'GreenpeaceFont (deutsch)';fill:#ffffff;fill-opacity:1"
         id="path3033"
         inkscape:connector-curvature="0" />
      <path
         d="m 460.19643,85.951462 -0.6875,0.15625 -0.84375,0.15625 -0.90625,0.1875 -0.96875,0.1875 -0.96875,0.25 -1,0.21875 -0.9375,0.28125 -0.875,0.28125 -0.75,0.28125 -0.6875,0.28125 -0.71875,0.3125 -0.6875,0.3125 -0.6875,0.3125 -0.6875,0.34375 -0.65625,0.34375 -0.6875,0.375 -1.3125,0.71875 -1.25,0.78125 -1.25,0.78125 -1.21875,0.78125 -0.3125,0.21875 -0.3125,0.28125 -0.3125,0.28125 -0.28125,0.3125 -0.28125,0.34375 -0.25,0.34375 -0.28125,0.375 -0.25,0.375 -0.46875,0.78125 -0.46875,0.8125 -0.40625,0.75 -0.4375,0.71875 -0.1875,0.3125 -0.1875,0.34375 -0.1875,0.34375 -0.1875,0.406248 -0.15625,0.375 -0.15625,0.375 -0.1875,0.40625 -0.15625,0.40625 -0.125,0.4375 -0.125,0.4375 -0.125,0.4375 -0.125,0.46875 -0.125,0.4375 -0.0625,0.46875 -0.0937,0.46875 -0.0937,0.46875 -0.0312,0.4375 -0.0312,0.5 -0.0312,0.46875 0,0.46875 0,0.46875 0.0312,0.46875 0.0625,0.46875 0.0625,0.46875 0.0625,0.4375 0.125,0.46875 0.125,0.4375 0.125,0.4375 0.1875,0.4375 0.1875,0.4375 0.21875,0.40625 0.25,0.40625 0.1875,0.21875 0.21875,0.25 0.25,0.25 0.25,0.21875 0.25,0.25 0.25,0.21875 0.21875,0.25 0.1875,0.25 0.34375,0.53125 0.4375,0.5 0.4375,0.5625 0.53125,0.53125 0.5,0.5 0.53125,0.46875 0.28125,0.1875 0.25,0.21875 0.25,0.15625 0.28125,0.1875 0.34375,0.1875 0.375,0.21875 0.375,0.1875 0.375,0.1875 0.375,0.1875 0.375,0.21875 0.375,0.1875 0.375,0.21875 0.3125,0.25 0.34375,0.25 0.28125,0.3125 0.3125,0.28125 0.3125,0.28125 0.34375,0.28125 0.15625,0.0937 0.15625,0.125 0.1875,0.0937 0.1875,0.0625 0.34375,0.0937 0.28125,0.0937 0.28125,0.0625 0.3125,0.0937 0.25,0.0937 0.3125,0.0937 0.3125,0.0937 0.3125,0.125 0.15625,0.0937 0.125,0.0937 0.15625,0.0937 0.15625,0.125 0.125,0.125 0.15625,0.0937 0.15625,0.0937 0.15625,0.0625 0.4375,0.125 0.46875,0.125 0.46875,0.15625 0.5,0.125 0.5,0.125 0.53125,0.15625 0.5625,0.125 0.5625,0.125 0.8125,0.25 0.84375,0.1875 0.375,0.0937 0.4375,0.0937 0.40625,0.0625 0.4375,0.0312 0.4375,0.0312 0.46875,0 0.4375,-0.0312 0.46875,-0.0625 0.46875,-0.0937 0.5,-0.125 0.53125,-0.15625 0.5625,-0.21875 0.28125,-0.125 0.34375,-0.15625 0.34375,-0.21875 0.375,-0.21875 0.375,-0.25 0.3125,-0.25 0.15625,-0.125 0.125,-0.125 0.0937,-0.0937 0.0937,-0.125 0.21875,-0.40625 0.15625,-0.375 0.15625,-0.375 0.0937,-0.40625 0.0937,-0.40625 0.125,-0.4375 0.125,-0.4375 0.15625,-0.5 0.15625,-0.4375 0.15625,-0.4375 0.1875,-0.4375 0.1875,-0.40625 0.1875,-0.40625 0.15625,-0.4375 0.125,-0.40625 0.0937,-0.4375 0.0312,-0.1875 0,-0.1875 0,-0.1875 0,-0.21875 -0.0312,-0.1875 -0.0625,-0.1875 -0.0312,-0.1875 -0.0625,-0.21875 -0.0625,-0.1875 -0.0937,-0.21875 -0.0937,-0.1875 -0.0937,-0.21875 -0.25,-0.375 -0.3125,-0.40625 -0.125,-0.15625 -0.125,-0.125 -0.125,-0.125 -0.1875,-0.125 -0.0625,-0.0625 -0.125,-0.0312 -0.0937,-0.0312 -0.125,-0.0312 -0.125,0 -0.125,0 -0.125,0.0312 -0.125,0 -0.21875,0.0625 -0.1875,0.0625 -0.21875,0.125 -0.1875,0.0937 -0.40625,0.25 -0.375,0.28125 -0.40625,0.3125 -0.34375,0.3125 -0.375,0.25 -0.3125,0.25 -0.25,0.15625 -0.28125,0.1875 -0.3125,0.21875 -0.34375,0.1875 -0.34375,0.1875 -0.3125,0.15625 -0.28125,0.15625 -0.28125,0.0625 -0.46875,0.0937 -0.46875,0.0625 -0.53125,0.0312 -0.5625,-0.0625 -0.59375,-0.0312 -0.59375,-0.125 -0.625,-0.125 -0.65625,-0.15625 -0.6875,-0.15625 -0.6875,-0.21875 -0.65625,-0.25 -0.6875,-0.25 -0.6875,-0.28125 -0.6875,-0.28125 -0.6875,-0.3125 -0.6875,-0.3125 -0.65625,-0.34375 -0.65625,-0.34375 -0.625,-0.34375 -0.625,-0.375 -0.5625,-0.34375 -0.5625,-0.34375 -0.53125,-0.375 -0.5,-0.34375 -0.4375,-0.34375 -0.40625,-0.375 -0.375,-0.34375 -0.3125,-0.3125 -0.25,-0.3125 -0.25,-0.28125 -0.125,-0.3125 -0.0937,-0.25 -0.0937,-0.53125 -0.0625,-0.53125 -0.0312,-0.53125 0.0312,-0.5625 0.0625,-0.53125 0.0937,-0.53125 0.125,-0.53125 0.1875,-0.53125 0.1875,-0.5625 0.21875,-0.53125 0.25,-0.5 0.3125,-0.53125 0.28125,-0.5 0.34375,-0.5 0.34375,-0.5 0.34375,-0.499998 0.375,-0.46875 0.375,-0.46875 0.375,-0.4375 0.40625,-0.4375 0.40625,-0.4375 0.40625,-0.40625 0.40625,-0.375 0.40625,-0.375 0.75,-0.6875 0.75,-0.625 0.71875,-0.53125 0.625,-0.40625 0.125,-0.15625 0.1875,-0.125 0.1875,-0.125 0.1875,-0.1875 0.1875,-0.125 0.1875,-0.15625 0.15625,-0.09375 0.1875,-0.0625 0.1875,-0.0625 0.21875,-0.0625 0.21875,-0.03125 0.25,-0.03125 0.25,0 0.1875,0 0.1875,-0.03125 0.125,-0.03125 0.25,-0.0625 0.25,-0.09375 0.25,-0.09375 0.25,-0.125 0.21875,-0.09375 0.25,-0.09375 0.1875,-0.09375 0.1875,-0.03125 0.25,-0.09375 0.21875,0 0.25,0 0.25,0.0625 0.21875,0.0625 0.21875,0.09375 0.25,0.125 0.1875,0.15625 0.21875,0.15625 0.1875,0.21875 0.15625,0.1875 0.15625,0.21875 0.0937,0.25 0.0937,0.25 0.0625,0.25 0.0625,0.28125 0,0.40625 0,0.4375 -0.0625,0.4375 -0.0625,0.4375 -0.125,0.90625 -0.125,0.875 -0.0625,0.40625 -0.0625,0.40625 -0.0312,0.34375 -0.0312,0.34375 0,0.3125 0.0625,0.28125 0.0312,0.125 0.0312,0.09375 0.0625,0.0937 0.0625,0.0937 0.125,0.0937 0.125,0.125 0.125,0.0937 0.1875,0.0937 0.375,0.125 0.4375,0.125 0.4375,0.0937 0.40625,0.0937 0.4375,0.0937 0.3125,0.0937 0.90625,0.28125 0.6875,0.1875 0.3125,0.0625 0.25,0.0312 0.125,0 0.125,0 0.15625,-0.0312 0.0937,-0.0625 0.125,-0.0312 0.0937,-0.0625 0.125,-0.0937 0.125,-0.0937 0.21875,-0.25 0.21875,-0.34375 0.25,-0.40625 0.28125,-0.499992 0.28125,-0.59375 0.3125,-0.6875 0.0937,-0.3125 0.125,-0.34375 0.0937,-0.375 0.0937,-0.40625 0.0625,-0.40625 0.0625,-0.4375 0.0312,-0.5 0.0312,-0.46875 0,-0.5 0,-0.46875 0,-0.5 -0.0625,-0.5 -0.0312,-0.46875 -0.0937,-0.46875 -0.0625,-0.46875 -0.125,-0.4375 -0.125,-0.5 -0.15625,-0.5 -0.15625,-0.46875 -0.1875,-0.5 -0.15625,-0.4375 -0.1875,-0.4375 -0.21875,-0.40625 -0.21875,-0.375 -0.25,-0.375 -0.21875,-0.3125 -0.28125,-0.28125 -0.25,-0.28125 -0.3125,-0.1875 -0.28125,-0.1875 -0.1875,-0.09375 -0.15625,-0.0625 -0.15625,-0.0625 -0.1875,-0.03125 -0.3125,-0.09375 -0.21875,-0.0625 -0.21875,-0.0625 -0.1875,-0.0625 -0.1875,-0.0625 -0.21875,0 -0.3125,-0.03125 -0.375,0 -0.40625,0.03125 -0.28125,0 -0.15625,0 -0.125,0.03125 -0.0625,0.03125 -0.0937,0 -0.0937,0.0625 -0.1875,0.03125"
         style="font-size:64px;font-variant:normal;font-stretch:normal;font-family:'GreenpeaceFont (deutsch)';-inkscape-font-specification:'GreenpeaceFont (deutsch)';fill:#ffffff;fill-opacity:1"
         id="path3035"
         inkscape:connector-curvature="0" />
      <path
         d="m 509.41518,82.513962 0.1875,-0.0625 -0.0625,0 -0.1875,0.0625 -0.40625,0.09375 -0.53125,0.125 -0.625,0.15625 -0.75,0.1875 -0.78125,0.25 -0.28125,0.0625 -0.4375,0.125 -0.53125,0.125 -0.59375,0.125 -0.625,0.125 -0.59375,0.09375 -0.28125,0.0625 -0.28125,0 -0.21875,0 -0.21875,-0.03125 -0.0625,0 -0.0625,0.03125 -0.0937,0 -0.0937,0.03125 -0.15625,0.125 -0.1875,0.09375 -0.21875,0.125 -0.21875,0.0625 -0.125,0.03125 -0.15625,0 -0.15625,0 -0.125,-0.03125 -0.21875,0 -0.40625,0.0625 -0.53125,0.0625 -0.65625,0.125 -0.75,0.125 -0.875,0.125 -0.875,0.15625 -0.9375,0.09375 -1.3125,0.1875 -1.1875,0.125 -1.09375,0.1875 -1,0.1875 -0.96875,0.1875 -1,0.21875 -1.03125,0.25 -1.09375,0.3125 -0.3125,0.0625 -0.34375,0.03125 -0.375,0.03125 -0.40625,0 -0.375,0 -0.375,0 -0.375,0.03125 -0.3125,0.03125 -0.96875,0.25 -0.96875,0.15625 -0.84375,0.125 -0.8125,0.15625 -0.40625,0.0625 -0.40625,0.09375 -0.375,0.09375 -0.375,0.125 -0.375,0.125 -0.375,0.1875 -0.375,0.21875 -0.375,0.21875 -0.21875,0.15625 -0.21875,0.15625 -0.21875,0.1875 -0.1875,0.15625 -0.15625,0.1875 -0.15625,0.1875 -0.15625,0.1875 -0.125,0.21875 -0.125,0.21875 -0.0937,0.21875 -0.0937,0.1875 -0.0937,0.25 -0.15625,0.4375 -0.0937,0.46875 -0.0937,0.5 -0.0625,0.46875 -0.0312,0.5 -0.0312,0.53125 -0.0312,1.0625 -0.0312,1.0625 0,0.21875 -0.0625,0.21875 -0.125,0.28125 -0.125,0.3125 -0.3125,0.71875 -0.40625,0.78125 -0.375,0.8125 -0.375,0.781248 -0.1875,0.40625 -0.1875,0.375 -0.125,0.34375 -0.125,0.34375 -0.4375,1.4375 -0.5,1.8125 -0.28125,1.03125 -0.25,1.0625 -0.25,1.09375 -0.21875,1.125 -0.1875,1.15625 -0.1875,1.125 -0.0625,0.5625 -0.0312,0.5625 -0.0312,0.5625 -0.0312,0.5625 0,0.53125 0,0.5 0.0312,0.53125 0.0625,0.5 0.0625,0.46875 0.0625,0.46875 0.125,0.4375 0.125,0.40625 0.0312,0.125 0.0937,0.125 0.0937,0.125 0.125,0.125 0.125,0.125 0.0937,0.125 0.0937,0.125 0.0937,0.0937 0.25,0.34375 0.21875,0.34375 0.25,0.3125 0.21875,0.28125 0.25,0.28125 0.21875,0.21875 0.21875,0.21875 0.25,0.21875 0.25,0.21875 0.28125,0.1875 0.28125,0.1875 0.3125,0.1875 0.6875,0.375 0.78125,0.375 0.71875,0.3125 0.90625,0.34375 0.53125,0.1875 0.53125,0.15625 0.59375,0.15625 0.59375,0.15625 0.65625,0.15625 0.625,0.125 0.625,0.0937 0.625,0.0937 0.65625,0.0312 0.625,0 0.3125,0 0.28125,0 0.28125,-0.0312 0.3125,-0.0312 0.0625,-0.0312 0.15625,-0.0625 0.1875,-0.0937 0.15625,-0.0625 0.1875,-0.0937 0.1875,-0.0937 0.125,-0.0312 0.0937,-0.0312 0.3125,-0.0937 0.3125,0 0.34375,0 0.3125,0 0.28125,0 0.3125,0 0.15625,0 0.15625,-0.0312 0.15625,-0.0312 0.1875,-0.0625 0.28125,-0.0937 0.25,-0.0625 0.34375,-0.0937 0.34375,-0.0625 0.75,-0.125 0.78125,-0.15625 0.8125,-0.15625 0.78125,-0.1875 0.34375,-0.125 0.34375,-0.125 0.3125,-0.125 0.25,-0.1875 0.1875,-0.125 0.15625,-0.125 0.15625,-0.21875 0.15625,-0.1875 0.125,-0.1875 0.125,-0.21875 0.125,-0.25 0.0625,-0.25 0.0937,-0.25 0.0937,-0.28125 0.0625,-0.25 0.0312,-0.3125 0.0312,-0.28125 0.0312,-0.3125 0.0312,-0.28125 0,-0.28125 -0.0312,-0.3125 -0.0312,-0.28125 -0.0312,-0.28125 -0.0625,-0.28125 -0.0625,-0.25 -0.0937,-0.28125 -0.0937,-0.25 -0.0937,-0.21875 -0.125,-0.25 -0.125,-0.21875 -0.1875,-0.1875 -0.15625,-0.15625 -0.1875,-0.15625 -0.1875,-0.125 -0.25,-0.0937 -0.21875,-0.0937 -0.15625,0 -0.15625,-0.0312 -0.15625,0 -0.15625,0.0312 -0.3125,0.0312 -0.375,0.0937 -0.4375,0.125 -0.46875,0.125 -0.5625,0.125 -0.6875,0.125 -0.71875,0.125 -0.75,0.125 -0.6875,0.1875 -0.6875,0.15625 -0.65625,0.125 -0.6875,0.15625 -0.6875,0.0937 -0.65625,0.125 -0.6875,0.0625 -0.71875,0.0312 -0.375,0 -0.34375,0 -0.375,-0.0312 -0.375,-0.0312 -0.375,-0.0312 -0.40625,-0.0625 -0.375,-0.0937 -0.40625,-0.0937 -0.4375,-0.0937 -0.4375,-0.125 -0.40625,-0.15625 -0.46875,-0.15625 -0.15625,-0.0937 -0.15625,-0.0937 -0.1875,-0.0937 -0.15625,-0.0937 -0.15625,-0.125 -0.15625,-0.15625 -0.125,-0.15625 -0.125,-0.125 -0.0937,-0.1875 -0.0937,-0.1875 -0.0625,-0.1875 -0.0625,-0.21875 -0.0312,-0.21875 0,-0.21875 0.0312,-0.21875 0.0625,-0.25 0.0937,-0.3125 0.15625,-0.28125 0.25,-0.21875 0.25,-0.25 0.3125,-0.1875 0.375,-0.125 0.40625,-0.15625 0.4375,-0.0937 0.5,-0.125 0.5,-0.0625 0.53125,-0.0625 0.5625,-0.0312 0.5625,-0.0312 0.59375,0 0.625,0 0.59375,0 2.5,0.125 2.375,0.125 1.09375,0.0625 0.96875,0 0.4375,0 0.40625,0 0.34375,-0.0625 0.3125,-0.0625 0.84375,-0.125 0.75,-0.0937 0.65625,-0.0937 0.65625,-0.0625 0.28125,-0.0625 0.28125,-0.0937 0.25,-0.0937 0.25,-0.125 0.25,-0.125 0.25,-0.1875 0.21875,-0.21875 0.21875,-0.25 0.15625,-0.21875 0.0937,-0.21875 0.0937,-0.25 0.0625,-0.25 0.0937,-0.3125 0.0625,-0.28125 0.0312,-0.3125 0.0625,-0.3125 0.0625,-0.1875 0.0625,-0.15625 0.0937,-0.125 0.0937,-0.0937 0.15625,-0.1875 0.125,-0.1875 0.0625,-0.125 0.0312,-0.125 0,-0.1875 -0.0312,-0.1875 -0.0312,-0.25 -0.0937,-0.3125 -0.15625,-0.34375 -0.15625,-0.4375 -0.1875,-0.375 -0.28125,-0.5 -0.375,-0.59375 -0.4375,-0.625 -0.4375,-0.625 -0.40625,-0.53125 -0.21875,-0.1875 -0.15625,-0.1875 -0.15625,-0.125 -0.125,-0.0625 -0.28125,-0.0625 -0.25,0 -0.25,0 -0.25,0 -0.21875,0.0625 -0.21875,0.0625 -0.21875,0.0625 -0.1875,0.0937 -0.40625,0.1875 -0.34375,0.21875 -0.34375,0.15625 -0.28125,0.125 -0.34375,0.0312 -0.34375,0.0312 -0.375,-0.0312 -0.40625,0 -0.40625,-0.0312 -0.4375,-0.0312 -0.4375,-0.0312 -0.46875,0.0312 -0.6875,0.0625 -0.6875,0.0625 -0.65625,0.0625 -0.625,0.0625 -0.5,0.0312 -0.46875,0 -0.21875,0 -0.125,-0.0312 -0.15625,-0.0312 -0.125,-0.0625 -0.0937,-0.0625 -0.15625,-0.0312 -0.15625,-0.0312 -0.21875,0.0312 -0.4375,0.0625 -0.53125,0.0937 -0.28125,0.0625 -0.28125,0.0312 -0.25,0.0312 -0.28125,0 -0.28125,0 -0.25,0 -0.25,-0.0625 -0.1875,-0.125 -0.15625,-0.0625 -0.0937,-0.0937 -0.125,-0.0937 -0.0625,-0.0937 -0.0937,-0.125 -0.0312,-0.125 -0.0625,-0.125 -0.0312,-0.125 0,-0.3125 0,-0.28125 0.0625,-0.3125 0.0625,-0.312498 0.125,-0.34375 0.0937,-0.3125 0.125,-0.28125 0.125,-0.3125 0.25,-0.5 0.15625,-0.375 0.125,-0.4375 0.15625,-0.34375 0.1875,-0.375 0.1875,-0.3125 0.1875,-0.28125 0.21875,-0.28125 0.21875,-0.21875 0.25,-0.25 0.28125,-0.1875 0.25,-0.1875 0.28125,-0.125 0.28125,-0.15625 0.3125,-0.125 0.3125,-0.125 0.34375,-0.09375 0.34375,-0.09375 0.6875,-0.15625 0.71875,-0.15625 0.78125,-0.125 0.78125,-0.09375 0.78125,-0.125 0.84375,-0.15625 0.84375,-0.15625 0.84375,-0.21875 0.53125,-0.125 0.53125,-0.15625 0.5,-0.09375 0.5,-0.125 0.875,-0.15625 0.84375,-0.125 0.8125,-0.03125 0.71875,-0.03125 0.6875,0 0.625,0 1.25,0.0625 1.1875,0 0.5625,0 0.625,-0.0625 0.3125,-0.0625 0.3125,-0.03125 0.34375,-0.0625 0.3125,-0.09375 0.4375,-0.0625 0.4375,-0.0625 0.46875,0 0.4375,-0.03125 0.46875,0 0.46875,-0.03125 0.46875,-0.03125 0.4375,-0.09375 0.5,-0.125 0.71875,-0.09375 0.78125,-0.125 0.84375,-0.09375 0.78125,-0.09375 0.6875,-0.03125 0.5625,-0.03125 0.3125,0.03125 0.34375,0.03125 0.34375,0.03125 0.34375,0 0.375,-0.03125 0.3125,-0.03125 0.3125,-0.0625 0.15625,-0.0625 0.0937,-0.03125 0.0937,-0.03125 0.0937,-0.0625 0.0937,-0.0625 0.0625,-0.0625 0.0625,-0.125 0.0625,-0.09375 0.0625,-0.25 0,-0.3125 0.0312,-0.28125 0,-0.28125 -0.0312,-0.25 0,-0.21875 -0.0625,-0.46875 -0.0625,-0.40625 -0.0937,-0.375 -0.0937,-0.375 -0.0625,-0.3125 -0.125,-0.3125 -0.0937,-0.3125 -0.125,-0.25 -0.28125,-0.53125 -0.3125,-0.53125 -0.34375,-0.5 -0.34375,-0.5625 -0.21875,-0.34375 -0.1875,-0.34375 -0.0937,-0.15625 -0.0937,-0.15625 -0.0937,-0.125 -0.125,-0.125 -0.125,-0.09375 -0.15625,-0.09375 -0.1875,-0.0625 -0.1875,-0.03125 -0.25,0 -0.28125,0 -0.28125,0.0625 -0.375,0.09375"
         style="font-size:64px;font-variant:normal;font-stretch:normal;font-family:'GreenpeaceFont (deutsch)';-inkscape-font-specification:'GreenpeaceFont (deutsch)';fill:#ffffff;fill-opacity:1"
         id="path3037"
         inkscape:connector-curvature="0" />
    </g>
    <g
       style="font-size:144px;font-style:normal;font-weight:normal;line-height:125%;letter-spacing:0px;word-spacing:0px;fill:#000000;fill-opacity:1;stroke:none;font-family:Sans"
       id="text2989">
      <path
         d="m 230.89713,148.28335 8.424,0 c 0.98399,10e-6 1.83599,-0.10799 2.556,-0.324 0.71999,-0.23999 1.31998,-0.55199 1.8,-0.936 0.47998,-0.40799 0.83998,-0.87599 1.08,-1.404 0.23998,-0.52799 0.35998,-1.09199 0.36,-1.692 -2e-5,-3.21598 -1.93202,-4.82398 -5.796,-4.824 l -8.424,0 0,9.18 m -2.448,-11.268 10.872,0 c 1.07999,2e-5 2.11199,0.10802 3.096,0.324 1.00798,0.19202 1.88398,0.54002 2.628,1.044 0.76798,0.48002 1.37998,1.12802 1.836,1.944 0.45598,0.79202 0.68398,1.78802 0.684,2.988 -2e-5,0.67201 -0.10802,1.33201 -0.324,1.98 -0.21602,0.62401 -0.52802,1.20001 -0.936,1.728 -0.38402,0.50401 -0.85202,0.93601 -1.404,1.296 -0.52802,0.36001 -1.12802,0.61201 -1.8,0.756 l 0,0.072 c 1.65598,0.21601 2.97598,0.90001 3.96,2.052 0.98398,1.12801 1.47598,2.532 1.476,4.212 -2e-5,0.624 -0.096,1.356 -0.288,2.196 -0.16802,0.816 -0.56402,1.608 -1.188,2.376 -0.62402,0.768 -1.54802,1.416 -2.772,1.944 -1.22402,0.528 -2.88001,0.792 -4.968,0.792 l -10.872,0 0,-25.704 m 2.448,23.616 8.424,0 c 0.91199,0 1.77599,-0.072 2.592,-0.216 0.81599,-0.168 1.53598,-0.456 2.16,-0.864 0.62398,-0.408 1.11598,-0.948 1.476,-1.62 0.35998,-0.696 0.53998,-1.56 0.54,-2.592 -2e-5,-1.656 -0.58802,-2.89199 -1.764,-3.708 -1.17602,-0.83999 -2.84401,-1.25999 -5.004,-1.26 l -8.424,0 0,10.26"
         style="font-size:36px;font-variant:normal;font-weight:300;font-stretch:normal;letter-spacing:1px;font-family:Helvetica Neue LT Com;-inkscape-font-specification:Helvetica Neue LT Com Light;fill:#ffffff;fill-opacity:1"
         id="path3040"
         inkscape:connector-curvature="0" />
      <path
         d="m 266.42001,152.13535 c -0.024,-0.86399 -0.18002,-1.69199 -0.468,-2.484 -0.26402,-0.79199 -0.64802,-1.48799 -1.152,-2.088 -0.50402,-0.62399 -1.11602,-1.11599 -1.836,-1.476 -0.72001,-0.38399 -1.53601,-0.57599 -2.448,-0.576 -0.93601,1e-5 -1.76401,0.19201 -2.484,0.576 -0.72001,0.36001 -1.33201,0.85201 -1.836,1.476 -0.50401,0.60001 -0.91201,1.30801 -1.224,2.124 -0.28801,0.79201 -0.48001,1.60801 -0.576,2.448 l 12.024,0 m -12.024,1.908 c -1e-5,0.84 0.11999,1.692 0.36,2.556 0.23999,0.864 0.59999,1.644 1.08,2.34 0.47999,0.696 1.10399,1.272 1.872,1.728 0.79199,0.456 1.72799,0.684 2.808,0.684 1.65599,0 2.95198,-0.432 3.888,-1.296 0.93598,-0.888 1.58398,-2.04 1.944,-3.456 l 2.268,0 c -0.48002,2.112 -1.36802,3.756 -2.664,4.932 -1.27202,1.152 -3.08402,1.72799 -5.436,1.728 -1.48801,-1e-5 -2.76001,-0.26401 -3.816,-0.792 -1.05601,-0.528 -1.92001,-1.236 -2.592,-2.124 -0.67201,-0.912 -1.17601,-1.956 -1.512,-3.132 -0.312,-1.2 -0.468,-2.46 -0.468,-3.78 0,-1.22399 0.156,-2.42399 0.468,-3.6 0.33599,-1.17599 0.83999,-2.21999 1.512,-3.132 0.67199,-0.93599 1.53599,-1.67999 2.592,-2.232 1.05599,-0.57599 2.32799,-0.86399 3.816,-0.864 1.48799,1e-5 2.75998,0.30001 3.816,0.9 1.05598,0.60001 1.90798,1.39201 2.556,2.376 0.67198,0.96001 1.15198,2.07601 1.44,3.348 0.28798,1.24801 0.40798,2.52001 0.36,3.816 l -14.292,0"
         style="font-size:36px;font-variant:normal;font-weight:300;font-stretch:normal;letter-spacing:1px;font-family:Helvetica Neue LT Com;-inkscape-font-specification:Helvetica Neue LT Com Light;fill:#ffffff;fill-opacity:1"
         id="path3042"
         inkscape:connector-curvature="0" />
      <path
         d="m 272.76713,144.14335 2.088,0 0,4.356 0.072,0 c 0.576,-1.51199 1.464,-2.67599 2.664,-3.492 1.22399,-0.81599 2.67599,-1.18799 4.356,-1.116 l 0,2.268 c -1.03201,-0.048 -1.96801,0.096 -2.808,0.432 -0.84001,0.31201 -1.57201,0.76801 -2.196,1.368 -0.6,0.60001 -1.068,1.32001 -1.404,2.16 -0.336,0.84001 -0.504,1.74001 -0.504,2.7 l 0,9.9 -2.268,0 0,-18.576"
         style="font-size:36px;font-variant:normal;font-weight:300;font-stretch:normal;letter-spacing:1px;font-family:Helvetica Neue LT Com;-inkscape-font-specification:Helvetica Neue LT Com Light;fill:#ffffff;fill-opacity:1"
         id="path3044"
         inkscape:connector-curvature="0" />
      <path
         d="m 285.12344,137.01535 2.268,0 0,25.704 -2.268,0 0,-25.704"
         style="font-size:36px;font-variant:normal;font-weight:300;font-stretch:normal;letter-spacing:1px;font-family:Helvetica Neue LT Com;-inkscape-font-specification:Helvetica Neue LT Com Light;fill:#ffffff;fill-opacity:1"
         id="path3046"
         inkscape:connector-curvature="0" />
      <path
         d="m 292.80313,137.01535 2.268,0 0,3.636 -2.268,0 0,-3.636 m 0,7.128 2.268,0 0,18.576 -2.268,0 0,-18.576"
         style="font-size:36px;font-variant:normal;font-weight:300;font-stretch:normal;letter-spacing:1px;font-family:Helvetica Neue LT Com;-inkscape-font-specification:Helvetica Neue LT Com Light;fill:#ffffff;fill-opacity:1"
         id="path3048"
         inkscape:connector-curvature="0" />
      <path
         d="m 300.41082,144.14335 2.268,0 0,3.204 0.072,0 c 0.21599,-0.55199 0.51599,-1.05599 0.9,-1.512 0.40799,-0.47999 0.87599,-0.87599 1.404,-1.188 0.52799,-0.33599 1.10399,-0.58799 1.728,-0.756 0.62399,-0.19199 1.25999,-0.28799 1.908,-0.288 1.29599,1e-5 2.37599,0.16801 3.24,0.504 0.88798,0.33601 1.59598,0.81601 2.124,1.44 0.52798,0.60001 0.89998,1.34401 1.116,2.232 0.21598,0.88801 0.32398,1.88401 0.324,2.988 l 0,11.952 -2.268,0 0,-11.592 c -2e-5,-0.79199 -0.072,-1.52399 -0.216,-2.196 -0.14402,-0.69599 -0.39601,-1.29599 -0.756,-1.8 -0.36001,-0.50399 -0.85201,-0.89999 -1.476,-1.188 -0.60001,-0.28799 -1.35601,-0.43199 -2.268,-0.432 -0.91201,1e-5 -1.72801,0.16801 -2.448,0.504 -0.69601,0.31201 -1.29601,0.75601 -1.8,1.332 -0.50401,0.55201 -0.88801,1.22401 -1.152,2.016 -0.26401,0.76801 -0.408,1.60801 -0.432,2.52 l 0,10.836 -2.268,0 0,-18.576"
         style="font-size:36px;font-variant:normal;font-weight:300;font-stretch:normal;letter-spacing:1px;font-family:Helvetica Neue LT Com;-inkscape-font-specification:Helvetica Neue LT Com Light;fill:#ffffff;fill-opacity:1"
         id="path3050"
         inkscape:connector-curvature="0" />
      <path
         d="m 140.46772,81.57543 c 2.89948,0.858759 3.72812,2.541421 4.58527,2.874341 1.90693,0.739904 2.63475,0.70257 4.1168,0.858137 1.88266,0.196647 2.16804,0.348484 1.91739,2.206013 -0.16162,1.199767 -0.13585,2.495992 -0.60524,3.569433 -0.92466,2.112047 -2.27016,3.916057 -4.8028,4.40081 -0.89262,0.170514 -1.75797,0.555708 -2.58418,0.950241 -0.20131,0.09709 -0.37581,0.727452 -0.25552,0.927831 0.40499,0.67331 0.88994,1.323604 1.45149,1.873704 1.15291,1.12882 2.38093,2.17987 3.56428,3.27821 0.22072,0.20473 0.33764,0.53329 0.57487,0.70629 0.24504,0.17798 0.60722,0.37711 0.86827,0.32359 2.99476,-0.61295 5.99002,-1.22902 8.96207,-1.94465 0.99378,-0.23957 1.93032,-0.73989 2.87309,-1.16492 0.77039,-0.34723 1.68204,-0.601742 2.22343,-1.182967 0.72933,-0.782834 1.18297,-1.830143 1.71565,-2.785972 0.32669,-0.585573 0.53454,-1.239599 0.87618,-1.814591 0.72994,-1.231509 1.58185,-1.64097 3.10458,-1.268848 1.07781,0.263225 2.22592,0.805861 2.29625,2.08777 0.0503,0.925349 -0.22154,1.934069 -0.58869,2.804026 -1.38583,3.285682 -3.7499,5.877942 -6.27949,8.297752 -2.49475,2.3871 -5.44129,4.1587 -8.46497,5.80551 -1.00594,0.54693 -1.9306,1.24215 -2.96005,1.91479 1.22927,0.73728 2.34958,1.46404 3.52073,2.09778 1.57563,0.85198 3.1525,1.72343 4.7997,2.41746 1.66898,0.70369 2.94528,0.24258 4.0598,-1.16485 1.05664,-1.33455 2.65094,-1.58323 4.15875,-1.91671 0.66397,-0.14705 1.2819,1.01122 1.3379,2.02611 0.12758,2.32624 -1.11638,3.92084 -2.72001,5.34531 -0.59179,0.52553 -1.13506,1.14663 -1.81086,1.52828 -1.37836,0.77736 -2.7841,1.55883 -4.27075,2.07222 -1.01059,0.34959 -2.2116,0.46186 -3.26825,0.29782 -2.2085,-0.34276 -4.39423,-0.8768 -6.55449,-1.45969 -0.91104,-0.24606 -1.4162,-0.4806 -2.0093,0.6534 -0.90015,1.72099 -2.18847,3.2395 -3.31002,4.8458 -0.1743,0.24961 -0.33715,0.50729 -0.44798,0.67501 1.38284,0.8272 2.76551,1.5905 4.08152,2.45585 2.94983,1.93905 5.18795,4.45688 5.75859,8.05912 0.24145,1.52827 0.17174,3.11946 0.11761,4.6771 -0.056,1.62037 -0.30803,3.23273 -0.38023,4.85266 -0.0217,0.48153 0.13816,1.10817 0.4549,1.43804 0.51588,0.53816 1.20102,0.42322 1.8569,0.0259 0.88863,-0.53771 1.79531,-1.05957 2.74118,-1.48521 1.37027,-0.61743 2.88679,-0.23779 3.66278,0.81943 0.80089,1.09092 0.66149,2.92275 -0.22589,4.03367 -0.90853,1.13759 -2.20911,1.64027 -3.45805,2.18602 -1.00375,0.43877 -2.10706,0.64662 -3.1606,0.97694 -0.22339,0.0704 -0.44929,0.19494 -0.62476,0.351 -1.29996,1.15319 -2.84436,1.60628 -4.54713,1.69282 -0.76939,0.0383 -1.26573,-0.24915 -1.45851,-0.96966 -0.3712,-1.38942 -0.77687,-2.776 -1.03089,-4.18853 -0.48594,-2.69967 -1.82454,-4.85092 -3.93547,-6.55394 -1.31072,-1.05738 -2.6192,-2.11576 -3.94791,-3.14932 -1.32553,-1.03069 -1.64004,-0.8129 -2.51316,0.54618 -1.05087,1.63668 -2.31417,3.1581 -3.63603,4.59056 -1.07513,1.16634 -2.37783,2.12137 -3.56651,3.18485 -0.25303,0.22657 -0.44799,0.51849 -0.70979,0.82771 1.24799,0.3865 2.32555,0.8109 3.44325,1.04475 1.99616,0.4188 2.22591,2.11771 1.4427,3.61511 -0.24064,0.46112 -0.52383,0.90158 -0.81675,1.33232 -0.82092,1.2052 -2.27334,1.616 -3.65743,1.20203 -2.18771,-0.65388 -3.97971,-2.0042 -5.66256,-3.48528 -0.7737,-0.68089 -1.48471,-1.45047 -2.12599,-2.25825 -0.82963,-1.0467 -0.9694,-2.27204 -0.70324,-3.57523 0.70517,-3.45855 1.40675,-6.91734 2.0533,-10.3866 0.16117,-0.8661 0.11792,-1.77159 0.14468,-2.66002 0.007,-0.20859 -0.019,-0.47108 -0.13908,-0.62061 -1.4162,-1.76525 -0.95068,-3.68748 -0.35272,-5.53058 1.2859,-3.96416 2.41311,-8.0168 4.13653,-11.79059 1.44148,-3.15519 0.88994,-6.04422 0.0863,-9.03898 -0.97599,-3.63652 -1.51321,-7.26936 -0.73025,-11.01871 0.16142,-0.77163 0.18308,-1.5974 0.11549,-2.3846 -0.0635,-0.739276 -0.38308,-1.452416 -0.49638,-2.192314 -0.22609,-1.474199 -0.55883,-2.961469 -0.52964,-4.436908 0.0314,-1.577499 0.46181,-3.145043 0.64606,-4.725034 0.0528,-0.453015 -0.0602,-0.972008 -0.24282,-1.398896 -0.72995,-1.706313 -0.59018,-3.362215 0.61041,-4.706353 0.39813,-0.446182 1.53698,-0.553218 2.21055,-0.363417 1.40039,0.392663 2.36033,0.0034 3.51834,-0.636605 2.16295,-1.195408 4.1837,-0.711272 5.49679,-0.490982"
         style="fill:#ffffff;fill-opacity:1;fill-rule:nonzero;stroke:none"
         id="path14"
         inkscape:connector-curvature="0" />
    </g>
  </g>
</svg>
